<?xml version="1.0" encoding="utf-8"?>
<!-- Generator: Adobe Illustrator 16.0.0, SVG Export Plug-In . SVG Version: 6.00 Build 0)  -->
<!DOCTYPE svg PUBLIC "-//W3C//DTD SVG 1.1//EN" "http://www.w3.org/Graphics/SVG/1.1/DTD/svg11.dtd">
<svg version="1.1" id="Layer_1" xmlns="http://www.w3.org/2000/svg" xmlns:xlink="http://www.w3.org/1999/xlink" x="0px" y="0px"
	 width="50px" height="50px" viewBox="0 0 50 50" enable-background="new 0 0 50 50" xml:space="preserve">
<path display="none" fill="#F79920" d="M44.19,25c0-10.932-8.894-19.826-19.826-19.826C13.432,5.174,4.538,14.068,4.538,25
	c0,10.933,8.894,19.826,19.826,19.826C35.297,44.826,44.19,35.933,44.19,25 M26.311,24.97c0,1.039-0.842,1.881-1.882,1.881
	c-1.039,0-1.881-0.842-1.881-1.881v-9.785c0-1.039,0.842-1.882,1.881-1.882s1.882,0.842,1.882,1.882V24.97z M37.166,25.033
	c0,7.059-5.742,12.802-12.802,12.802c-7.06,0-12.803-5.743-12.803-12.802c0-3.422,1.333-6.639,3.755-9.056
	c0.367-0.367,0.848-0.55,1.329-0.55c0.482,0,0.964,0.183,1.331,0.551c0.735,0.736,0.734,1.927-0.001,2.661
	c-1.708,1.708-2.65,3.978-2.65,6.394c0,4.983,4.055,9.038,9.039,9.038c4.983,0,9.038-4.055,9.038-9.038
	c0-2.414-0.939-4.684-2.646-6.391c-0.734-0.736-0.733-1.927,0-2.662c0.736-0.735,1.928-0.734,2.662,0.001
	C35.836,18.399,37.166,21.614,37.166,25.033"/>
<g opacity="0.3">
	<g>
		<defs>
			<rect id="SVGID_1_" x="4.199" y="4.835" width="40.331" height="40.33"/>
		</defs>
		<clipPath id="SVGID_2_">
			<use xlink:href="#SVGID_1_"  overflow="visible"/>
		</clipPath>
		<path clip-path="url(#SVGID_2_)" fill="#FFFFFF" d="M38.623,10.741c-7.875-7.875-20.642-7.875-28.518,0
			c-7.875,7.875-7.875,20.643,0,28.518c7.876,7.875,20.643,7.875,28.518,0C46.499,31.384,46.499,18.616,38.623,10.741
			 M34.023,32.225c0.672,0.672,0.672,1.762,0,2.434c-0.336,0.336-0.776,0.505-1.217,0.505s-0.88-0.169-1.216-0.505l-7.226-7.226
			l-7.226,7.226c-0.336,0.336-0.776,0.505-1.216,0.505c-0.441,0-0.882-0.169-1.218-0.505c-0.672-0.672-0.672-1.762,0-2.434
			L21.932,25l-7.226-7.225c-0.672-0.672-0.672-1.762,0-2.434c0.673-0.672,1.763-0.672,2.434,0l7.226,7.226l7.226-7.226
			c0.671-0.672,1.761-0.672,2.433,0s0.672,1.762,0,2.434L26.799,25L34.023,32.225z"/>
	</g>
</g>
</svg>
