<?xml version="1.0" encoding="utf-8"?>
<!-- Generator: Adobe Illustrator 16.0.0, SVG Export Plug-In . SVG Version: 6.00 Build 0)  -->
<!DOCTYPE svg PUBLIC "-//W3C//DTD SVG 1.1//EN" "http://www.w3.org/Graphics/SVG/1.1/DTD/svg11.dtd">
<svg version="1.1" id="Layer_2" xmlns="http://www.w3.org/2000/svg" xmlns:xlink="http://www.w3.org/1999/xlink" x="0px" y="0px"
	 width="41px" height="41px" viewBox="0 0 41 41" enable-background="new 0 0 41 41" xml:space="preserve">
<path fill="#595959" d="M13.196,25.813c-0.084,0.395-1.014,4.893-1.839,8.892l7.935-4.523c0.667-0.383,1.489-0.383,2.156,0
	l7.936,4.52l-1.849-8.94c-0.156-0.754,0.098-1.536,0.671-2.052l6.752-6.147l-9.079-1.004c-0.765-0.085-1.426-0.566-1.745-1.272
	l-3.765-8.324l-3.76,8.324c-0.317,0.701-0.979,1.183-1.744,1.272l-9.079,1.004l6.752,6.147
	C13.131,24.245,13.375,25.053,13.196,25.813z M30.948,40.112c-0.488,0-0.965-0.11-1.407-0.319c-0.076-0.03-0.15-0.067-0.228-0.11
	l-8.946-5.103l-8.947,5.104c-0.075,0.043-0.152,0.081-0.231,0.114c-1.061,0.498-2.362,0.38-3.313-0.311
	c-1.021-0.74-1.526-2.033-1.276-3.286L8.686,26.09c-0.815-0.741-2.097-1.906-3.49-3.173l-4.128-3.759
	c-0.058-0.054-0.12-0.115-0.169-0.179c-0.816-0.863-1.109-2.113-0.741-3.25c0.378-1.141,1.351-1.986,2.527-2.197
	c0.074-0.018,0.146-0.031,0.223-0.04l10.24-1.135l4.239-9.388c0.036-0.083,0.078-0.164,0.13-0.24
	c0.572-1.031,1.665-1.679,2.852-1.679c1.184,0,2.274,0.648,2.852,1.677c0.046,0.079,0.089,0.159,0.131,0.244l4.243,9.393
	l10.24,1.135c0.073,0.006,0.147,0.02,0.228,0.037c1.173,0.218,2.146,1.058,2.522,2.205c0.369,1.134,0.075,2.392-0.741,3.254
	c-0.051,0.057-0.11,0.118-0.17,0.17l-7.619,6.937l2.083,10.089c0.247,1.279-0.256,2.566-1.284,3.31
	C32.303,39.896,31.641,40.112,30.948,40.112z"/>
</svg>
