<?xml version="1.0" encoding="utf-8"?>
<!-- Generator: Adobe Illustrator 16.0.0, SVG Export Plug-In . SVG Version: 6.00 Build 0)  -->
<!DOCTYPE svg PUBLIC "-//W3C//DTD SVG 1.1//EN" "http://www.w3.org/Graphics/SVG/1.1/DTD/svg11.dtd">
<svg version="1.1" id="Layer_2" xmlns="http://www.w3.org/2000/svg" xmlns:xlink="http://www.w3.org/1999/xlink" x="0px" y="0px"
	 width="41px" height="41px" viewBox="0 0 41 41" enable-background="new 0 0 41 41" xml:space="preserve">
<g>
	<path fill="#F8A628" d="M3.497,37.979c-3.114,0-4.389-2.177-2.832-4.836L17.653,4.125c1.559-2.66,4.105-2.66,5.664,0l16.988,29.018
		c1.559,2.659,0.284,4.836-2.832,4.836H3.497z"/>
	<g>
		<path fill="#FFFFFF" d="M17.925,13.653c0-0.704,0.576-1.281,1.28-1.281h2.561c0.705,0,1.279,0.577,1.279,1.281v11.523
			c0,0.704-0.574,1.278-1.279,1.278h-2.561c-0.704,0-1.28-0.574-1.28-1.278V13.653z"/>
		<circle fill="#FFFFFF" cx="20.486" cy="31.576" r="2.561"/>
	</g>
</g>
</svg>
