<?xml version="1.0" encoding="utf-8"?>
<!-- Generator: Adobe Illustrator 16.0.0, SVG Export Plug-In . SVG Version: 6.00 Build 0)  -->
<!DOCTYPE svg PUBLIC "-//W3C//DTD SVG 1.1//EN" "http://www.w3.org/Graphics/SVG/1.1/DTD/svg11.dtd">
<svg version="1.1" id="distancia" xmlns="http://www.w3.org/2000/svg" xmlns:xlink="http://www.w3.org/1999/xlink" x="0px" y="0px"
	 width="50px" height="50px" viewBox="0 0 50 50" enable-background="new 0 0 50 50" xml:space="preserve">
<path display="none" fill="#F79920" d="M44.19,25c0-10.932-8.894-19.826-19.826-19.826C13.432,5.174,4.538,14.068,4.538,25
	c0,10.933,8.894,19.826,19.826,19.826C35.297,44.826,44.19,35.933,44.19,25 M26.311,24.97c0,1.039-0.842,1.881-1.882,1.881
	c-1.039,0-1.881-0.842-1.881-1.881v-9.785c0-1.039,0.842-1.882,1.881-1.882s1.882,0.842,1.882,1.882V24.97z M37.166,25.033
	c0,7.059-5.742,12.802-12.802,12.802c-7.06,0-12.803-5.743-12.803-12.802c0-3.422,1.333-6.639,3.755-9.056
	c0.367-0.367,0.848-0.55,1.329-0.55c0.482,0,0.964,0.183,1.331,0.551c0.735,0.736,0.734,1.927-0.001,2.661
	c-1.708,1.708-2.65,3.978-2.65,6.394c0,4.983,4.055,9.038,9.039,9.038c4.983,0,9.038-4.055,9.038-9.038
	c0-2.414-0.939-4.684-2.646-6.391c-0.734-0.736-0.733-1.927,0-2.662c0.736-0.735,1.928-0.734,2.662,0.001
	C35.836,18.399,37.166,21.614,37.166,25.033"/>
<g display="none" opacity="0.3">
	<g display="inline">
		<defs>
			<rect id="SVGID_1_" x="4.199" y="4.835" width="40.331" height="40.33"/>
		</defs>
		<clipPath id="SVGID_2_">
			<use xlink:href="#SVGID_1_"  overflow="visible"/>
		</clipPath>
		<path clip-path="url(#SVGID_2_)" fill="#FFFFFF" d="M38.623,10.741c-7.875-7.875-20.642-7.875-28.518,0
			c-7.875,7.875-7.875,20.643,0,28.518c7.876,7.875,20.643,7.875,28.518,0C46.499,31.384,46.499,18.616,38.623,10.741
			 M34.023,32.225c0.672,0.672,0.672,1.762,0,2.434c-0.336,0.336-0.776,0.505-1.217,0.505s-0.88-0.169-1.216-0.505l-7.226-7.226
			l-7.226,7.226c-0.336,0.336-0.776,0.505-1.216,0.505c-0.441,0-0.882-0.169-1.218-0.505c-0.672-0.672-0.672-1.762,0-2.434
			L21.932,25l-7.226-7.225c-0.672-0.672-0.672-1.762,0-2.434c0.673-0.672,1.763-0.672,2.434,0l7.226,7.226l7.226-7.226
			c0.671-0.672,1.761-0.672,2.433,0s0.672,1.762,0,2.434L26.799,25L34.023,32.225z"/>
	</g>
</g>
<g display="none" opacity="0.8">
	<g display="inline">
		<defs>
			<rect id="SVGID_3_" x="4.538" y="4.977" width="39.849" height="39.85"/>
		</defs>
		<clipPath id="SVGID_4_">
			<use xlink:href="#SVGID_3_"  overflow="visible"/>
		</clipPath>
		<path clip-path="url(#SVGID_4_)" fill="#FFFFFF" d="M44.044,23.042c0,0-0.725-0.271-2.815-0.465
			c-2.562-0.236-3.333-1.195-4.184-2.39h-0.018c-0.105-0.283-0.22-0.563-0.345-0.838l0.011-0.011
			c-0.243-1.446-0.376-2.67,1.268-4.647c1.342-1.616,1.661-2.321,1.661-2.321c-0.313-0.8-1.072-1.558-1.072-1.558
			s-0.757-0.757-1.557-1.072c0,0-0.704,0.319-2.32,1.662c-1.976,1.643-3.201,1.511-4.647,1.268l-0.009,0.011
			c-0.275-0.125-0.556-0.238-0.841-0.345v-0.017c-1.194-0.852-2.152-1.624-2.389-4.183c-0.192-2.092-0.467-2.817-0.467-2.817
			c-0.788-0.343-1.858-0.343-1.858-0.343s-1.071,0-1.86,0.343c0,0-0.271,0.725-0.465,2.817c-0.235,2.559-1.197,3.332-2.389,4.183
			v0.017c-0.285,0.106-0.564,0.219-0.839,0.344l-0.01-0.01c-1.445,0.244-2.67,0.375-4.647-1.267
			C12.635,10.061,11.93,9.74,11.93,9.74c-0.8,0.315-1.557,1.072-1.557,1.072s-0.757,0.759-1.072,1.558c0,0,0.319,0.705,1.662,2.321
			c1.642,1.976,1.51,3.202,1.268,4.647l0.01,0.011c-0.125,0.274-0.237,0.555-0.344,0.838h-0.017
			c-0.852,1.195-1.624,2.154-4.183,2.39C5.605,22.77,4.88,23.043,4.88,23.043c-0.342,0.788-0.342,1.858-0.342,1.858
			s0,1.071,0.342,1.859c0,0,0.724,0.273,2.817,0.465c2.558,0.236,3.331,1.197,4.183,2.39h0.017c0.107,0.285,0.219,0.565,0.344,0.84
			l-0.01,0.01c0.244,1.446,0.375,2.671-1.267,4.647c-1.344,1.617-1.664,2.321-1.664,2.321c0.315,0.799,1.072,1.556,1.072,1.556
			s0.758,0.758,1.557,1.071c0,0,0.705-0.317,2.321-1.66c1.978-1.643,3.203-1.51,4.648-1.269l0.01-0.009
			c0.275,0.124,0.555,0.235,0.839,0.344v0.017c1.194,0.851,2.154,1.622,2.389,4.184c0.194,2.091,0.465,2.816,0.465,2.816
			c0.791,0.342,1.86,0.342,1.86,0.342s1.071,0,1.858-0.342c0,0,0.274-0.726,0.467-2.816c0.236-2.562,1.196-3.332,2.389-4.184v-0.017
			c0.285-0.108,0.565-0.22,0.841-0.345l0.009,0.01c1.446-0.243,2.672-0.374,4.647,1.269c1.616,1.342,2.322,1.66,2.322,1.66
			c0.798-0.314,1.555-1.071,1.555-1.071s0.759-0.757,1.072-1.557c0,0-0.317-0.704-1.661-2.32c-1.644-1.977-1.511-3.201-1.268-4.647
			l-0.011-0.01c0.125-0.274,0.239-0.555,0.345-0.84h0.018c0.85-1.193,1.622-2.153,4.184-2.39c2.091-0.193,2.816-0.465,2.816-0.465
			c0.342-0.789,0.342-1.859,0.342-1.859S44.387,23.829,44.044,23.042 M24.462,34.22c-5.147,0-9.318-4.171-9.318-9.318
			s4.171-9.319,9.318-9.319c5.146,0,9.318,4.172,9.318,9.319S29.608,34.22,24.462,34.22"/>
	</g>
</g>
<g display="none" opacity="0.8">
	<g display="inline">
		<defs>
			<rect id="SVGID_5_" x="4.063" y="4.688" width="40.25" height="40.25"/>
		</defs>
		<clipPath id="SVGID_6_">
			<use xlink:href="#SVGID_5_"  overflow="visible"/>
		</clipPath>
		<path clip-path="url(#SVGID_6_)" fill="#FFFFFF" d="M24.188,4.688c-11.115,0-20.125,9.01-20.125,20.125
			c0,11.114,9.01,20.125,20.125,20.125c11.115,0,20.125-9.011,20.125-20.125C44.313,13.698,35.303,4.688,24.188,4.688
			 M26.546,34.842c0,1.284-0.985,2.27-2.333,2.27s-2.334-0.985-2.334-2.27v-0.327c0-1.282,0.986-2.268,2.334-2.268
			s2.333,0.985,2.333,2.268V34.842z M32.595,20.379c0,4.142-2.991,6.015-6.64,6.639l-0.132,1.514
			c-0.131,0.722-0.657,1.314-1.413,1.314h-0.197c-0.756,0-1.314-0.56-1.414-1.314l-0.329-2.827
			c-0.132-0.887,0.394-1.545,1.282-1.644c3.09-0.296,4.801-1.479,4.801-3.55v-0.066c0-1.84-1.415-3.123-3.782-3.123
			c-1.742,0-3.156,0.625-4.471,1.808c-0.329,0.263-0.755,0.46-1.216,0.46c-1.019,0-1.841-0.822-1.841-1.808
			c0-0.494,0.198-1.019,0.658-1.413c1.742-1.644,3.944-2.729,6.968-2.729c4.602,0,7.726,2.563,7.726,6.674V20.379z"/>
	</g>
</g>
<g display="none" opacity="0.8">
	<g display="inline">
		<defs>
			<rect id="SVGID_7_" x="4.538" y="8.563" width="39.714" height="32.906"/>
		</defs>
		<clipPath id="SVGID_8_">
			<use xlink:href="#SVGID_7_"  overflow="visible"/>
		</clipPath>
		<path clip-path="url(#SVGID_8_)" fill="#FFFFFF" d="M34.911,27.398h-4.266c-0.899,0-1.651-0.722-1.651-1.652
			c0-0.9,0.752-1.652,1.651-1.652h4.266V19.92c0-0.962,0.751-1.712,1.712-1.712c0.932,0,1.712,0.75,1.712,1.712v4.174H42.6
			c0.901,0,1.652,0.752,1.652,1.652c0,0.931-0.751,1.652-1.652,1.652h-4.265v4.174c0,0.962-0.78,1.712-1.712,1.712
			c-0.961,0-1.712-0.75-1.712-1.712V27.398z"/>
		<path clip-path="url(#SVGID_8_)" fill="#FFFFFF" d="M37.444,41.469c0,0,0-2.263-0.189-3.445c-0.154-0.934-1.448-2.167-6.948-4.19
			c-5.417-1.988-5.083-1.02-5.083-4.678c0-2.374,1.208-0.995,1.979-5.502c0.301-1.774,0.54-0.592,1.191-3.437
			c0.343-1.491-0.231-1.602-0.163-2.313c0.069-0.711,0.138-1.346,0.266-2.802c0.154-1.799-1.518-6.538-7.506-6.538
			c-5.99,0-7.661,4.739-7.498,6.547c0.128,1.448,0.197,2.091,0.266,2.802c0.068,0.71-0.506,0.822-0.163,2.313
			c0.651,2.836,0.891,1.653,1.191,3.437c0.77,4.507,1.979,3.127,1.979,5.501c0,3.668,0.334,2.699-5.082,4.679
			c-5.501,2.015-6.805,3.256-6.95,4.191c-0.197,1.173-0.197,3.436-0.197,3.436h16.453H37.444z"/>
	</g>
</g>
<g display="none" opacity="0.8">
	<path display="inline" fill="#474747" d="M30.138,38.259H13.055c-2.514,0-4.551-2.038-4.551-4.552V13.378
		c0-4.454,3.609-8.063,8.063-8.063h13.571c2.514,0,4.551,2.039,4.551,4.553v23.84C34.688,36.221,32.651,38.259,30.138,38.259"/>
	<path display="inline" fill="#474747" stroke="#FFFFFF" stroke-width="2" stroke-miterlimit="10" d="M17.292,44.046
		c-2.841,0-5.151-2.311-5.151-5.15V14.348c0-2.841,2.311-5.151,5.151-5.151h17.79c2.841,0,5.151,2.311,5.151,5.151v24.547
		c0,2.84-2.311,5.15-5.151,5.15H17.292z"/>
	<path display="inline" fill="#FFFFFF" d="M32.791,32.021c-1.19,1.543-2.668,2.581-4.939,2.581c-3.263,0-5.555-2.094-6.393-5.225
		h-1.19c-0.529,0-0.948-0.42-0.948-0.949c0-0.508,0.419-0.947,0.948-0.947h0.859c-0.022-0.265-0.022-0.552-0.022-0.839
		c0-0.33,0-0.683,0.044-1.014h-0.881c-0.529,0-0.948-0.417-0.948-0.925c0-0.529,0.419-0.948,0.948-0.948h1.233
		c0.86-2.976,3.131-5.114,6.262-5.114c2.337,0,3.747,0.927,4.894,2.249c0.178,0.175,0.354,0.507,0.354,0.904
		c0,0.705-0.597,1.278-1.301,1.278c-0.463,0-0.771-0.221-0.948-0.441c-0.839-1.014-1.698-1.566-3.064-1.566
		c-1.586,0-2.777,1.037-3.395,2.69h3.924c0.508,0,0.926,0.419,0.926,0.948c0,0.508-0.418,0.925-0.926,0.925h-4.343
		c-0.044,0.308-0.044,0.64-0.044,0.971c0,0.308,0,0.595,0.022,0.882h4.365c0.508,0,0.926,0.439,0.926,0.947
		c0,0.529-0.418,0.949-0.926,0.949h-3.968c0.617,1.764,1.874,2.799,3.616,2.799c1.323,0,2.182-0.639,3.021-1.676
		c0.22-0.263,0.528-0.44,0.947-0.44c0.662,0,1.213,0.528,1.213,1.191C33.055,31.582,32.922,31.868,32.791,32.021"/>
	<rect x="8.503" y="5.314" display="inline" fill="none" width="32.685" height="39.686"/>
</g>
<g id="recomendadas" display="none" opacity="0.8">
	<g display="inline">
		<defs>
			<rect id="SVGID_9_" x="4.5" y="4.92" width="41.003" height="40.08"/>
		</defs>
		<clipPath id="SVGID_10_">
			<use xlink:href="#SVGID_9_"  overflow="visible"/>
		</clipPath>
		<path clip-path="url(#SVGID_10_)" fill="#474747" d="M30.066,4.921c-0.186,0.007-0.374,0.042-0.559,0.11
			c-0.631,0.241-0.813,0.768-1.47,4.083c-0.663,3.351-1.025,4.138-2.65,5.942c-3.067,3.552-3.129,4.987-5.606,8.181
			c-1.157,1.493-2.897,2.169-4.575,2.487c0.162,5.652,0.012,11.318,0.065,16.974c0.025,0.146,0.041,0.295,0.048,0.444
			c0.612,0.029,1.205,0.063,1.768,0.105c0.768,0.075,1.985,0.295,2.704,0.493c6.658,1.358,13.12,1.048,20.29,1.037
			c1.321,0,2.385-1.062,2.385-2.384c0-1.131-0.779-2.071-1.832-2.318h1.382c1.804,0,3.257-1.452,3.257-3.256
			c0-1.428-0.907-2.636-2.18-3.078c1.391-0.372,2.407-1.636,2.407-3.146c0-1.604-1.148-2.93-2.673-3.203
			c1.399-0.438,2.41-1.741,2.41-3.289c0-1.91-1.538-3.449-3.448-3.449h-9.208c-1.238-0.095-1.304-0.355-1.304-0.975
			c0-0.298,0.399-1.609,0.887-2.912c1.175-3.382,2.752-8.211,0.252-10.701C31.674,5.382,30.868,4.888,30.066,4.921z"/>
		<path clip-path="url(#SVGID_10_)" fill="#474747" d="M5.787,24.097c-0.713,0-1.287,0.574-1.287,1.286v18.331
			C4.5,44.427,5.074,45,5.787,45h7.075c0.713,0,1.287-0.573,1.287-1.287V25.382c0-0.712-0.574-1.286-1.287-1.286H5.787z
			 M11.052,39.616c1.065,0,1.93,0.864,1.93,1.93s-0.864,1.93-1.93,1.93s-1.93-0.864-1.93-1.93S9.987,39.616,11.052,39.616"/>
	</g>
</g>
<g>
	<polygon fill="#F79920" points="19.94,40.527 3.967,44.806 8.246,28.832 	"/>
	<polygon fill="#F79920" points="39.573,20.893 43.854,4.92 27.881,9.199 	"/>
	<path fill="#F79920" d="M12.381,36.391l23.056-23.057L12.381,36.391z"/>
	<rect x="22" y="9" transform="matrix(0.707 0.7072 -0.7072 0.707 24.9181 -9.1479)" fill="#F79920" width="3" height="33"/>
</g>
<g display="none" opacity="0.8">
	<g display="inline">
		<defs>
			<rect id="SVGID_11_" x="8.355" y="3.75" width="32.075" height="41.056"/>
		</defs>
		<clipPath id="SVGID_12_">
			<use xlink:href="#SVGID_11_"  overflow="visible"/>
		</clipPath>
		<path clip-path="url(#SVGID_12_)" fill="#474747" d="M40.363,19.815L35.878,8.432c-0.153-0.409-0.576-0.67-1.022-0.604
			l-6.396,0.95c-0.274-0.321-0.56-0.631-0.854-0.927c-1.874-1.881-4.166-3.242-6.892-4.062c-0.499-0.149-1.024,0.134-1.174,0.635
			c-0.15,0.5,0.133,1.027,0.632,1.178c2.418,0.727,4.446,1.93,6.102,3.59c1.666,1.67,2.963,3.813,3.904,6.403
			c0.179,0.491,0.718,0.745,1.208,0.567c0.488-0.179,0.741-0.721,0.564-1.212c-0.351-0.961-0.745-1.868-1.188-2.72
			c3.223-0.416,5.217,4.286,1.98,6.163c-1.573,0.913-3.59,0.368-4.493-1.206l-0.004,0.002l-0.003-0.004
			c-0.53-0.923-0.563-2.005-0.18-2.926c-0.791-1.538-1.741-2.871-2.859-3.993c-0.303-0.304-0.618-0.592-0.946-0.865L22.83,9.614
			c-0.293,0.029-0.569,0.195-0.728,0.471L8.482,33.776c-0.261,0.454-0.107,1.036,0.346,1.299l16.564,9.604
			c0.451,0.262,1.03,0.106,1.29-0.35l13.622-23.692h-0.002C40.442,20.395,40.474,20.094,40.363,19.815 M31.063,27.589
			c-0.372,0.698-1.262,0.938-1.959,0.567c-0.454-0.243-0.638-0.61-0.71-0.896c-0.223-0.926-0.629-1.591-1.483-2.047
			c-1.028-0.549-2.085-0.375-3.033,0.351l2.423,1.294c0.486,0.261,0.675,0.876,0.413,1.363c-0.261,0.49-0.868,0.659-1.354,0.397
			l-2.842-1.518c-0.12,0.182-0.232,0.391-0.343,0.6c-0.111,0.21-0.213,0.401-0.29,0.585l2.841,1.518
			c0.488,0.261,0.675,0.876,0.415,1.364c-0.263,0.49-0.867,0.658-1.355,0.397l-2.458-1.314c-0.114,1.262,0.38,2.265,1.496,2.86
			c0.872,0.467,1.625,0.398,2.609,0.027c0.339-0.132,0.729-0.147,1.129,0.066c0.662,0.354,0.914,1.183,0.56,1.845
			c-0.168,0.314-0.465,0.536-0.671,0.628c-1.582,0.655-3.141,0.764-4.902-0.177c-2.666-1.425-3.622-3.999-3.043-6.758l-0.802-0.429
			c-0.487-0.262-0.683-0.859-0.423-1.348c0.261-0.487,0.877-0.674,1.365-0.413l0.522,0.279c0.076-0.184,0.169-0.358,0.271-0.55
			c0.112-0.209,0.233-0.436,0.362-0.636l-0.523-0.279c-0.488-0.261-0.684-0.858-0.423-1.346c0.261-0.488,0.875-0.675,1.364-0.414
			l0.854,0.457c1.945-1.919,4.588-2.59,7.168-1.211c1.813,0.97,2.548,2.191,2.943,3.634C31.265,26.756,31.279,27.188,31.063,27.589"
			/>
	</g>
</g>
</svg>
