<?xml version="1.0" encoding="utf-8"?>
<!-- Generator: Adobe Illustrator 16.0.0, SVG Export Plug-In . SVG Version: 6.00 Build 0)  -->
<!DOCTYPE svg PUBLIC "-//W3C//DTD SVG 1.1//EN" "http://www.w3.org/Graphics/SVG/1.1/DTD/svg11.dtd">
<svg version="1.1" id="Layer_1" xmlns="http://www.w3.org/2000/svg" xmlns:xlink="http://www.w3.org/1999/xlink" x="0px" y="0px"
	 width="50px" height="50px" viewBox="0 0 50 50" enable-background="new 0 0 50 50" xml:space="preserve">
<path display="none" fill="#F79920" d="M44.19,25c0-10.932-8.894-19.826-19.826-19.826C13.432,5.174,4.538,14.068,4.538,25
	c0,10.933,8.894,19.826,19.826,19.826C35.297,44.826,44.19,35.933,44.19,25 M26.311,24.97c0,1.039-0.842,1.881-1.882,1.881
	c-1.039,0-1.881-0.842-1.881-1.881v-9.785c0-1.039,0.842-1.882,1.881-1.882s1.882,0.842,1.882,1.882V24.97z M37.166,25.033
	c0,7.059-5.742,12.802-12.802,12.802c-7.06,0-12.803-5.743-12.803-12.802c0-3.422,1.333-6.639,3.755-9.056
	c0.367-0.367,0.848-0.55,1.329-0.55c0.482,0,0.964,0.183,1.331,0.551c0.735,0.736,0.734,1.927-0.001,2.661
	c-1.708,1.708-2.65,3.978-2.65,6.394c0,4.983,4.055,9.038,9.039,9.038c4.983,0,9.038-4.055,9.038-9.038
	c0-2.414-0.939-4.684-2.646-6.391c-0.734-0.736-0.733-1.927,0-2.662c0.736-0.735,1.928-0.734,2.662,0.001
	C35.836,18.399,37.166,21.614,37.166,25.033"/>
<g display="none" opacity="0.3">
	<g display="inline">
		<defs>
			<rect id="SVGID_1_" x="4.199" y="4.835" width="40.331" height="40.33"/>
		</defs>
		<clipPath id="SVGID_2_">
			<use xlink:href="#SVGID_1_"  overflow="visible"/>
		</clipPath>
		<path clip-path="url(#SVGID_2_)" fill="#FFFFFF" d="M38.623,10.741c-7.875-7.875-20.642-7.875-28.518,0
			c-7.875,7.875-7.875,20.643,0,28.518c7.876,7.875,20.643,7.875,28.518,0C46.499,31.384,46.499,18.616,38.623,10.741
			 M34.023,32.225c0.672,0.672,0.672,1.762,0,2.434c-0.336,0.336-0.776,0.505-1.217,0.505s-0.88-0.169-1.216-0.505l-7.226-7.226
			l-7.226,7.226c-0.336,0.336-0.776,0.505-1.216,0.505c-0.441,0-0.882-0.169-1.218-0.505c-0.672-0.672-0.672-1.762,0-2.434
			L21.932,25l-7.226-7.225c-0.672-0.672-0.672-1.762,0-2.434c0.673-0.672,1.763-0.672,2.434,0l7.226,7.226l7.226-7.226
			c0.671-0.672,1.761-0.672,2.433,0s0.672,1.762,0,2.434L26.799,25L34.023,32.225z"/>
	</g>
</g>
<g display="none" opacity="0.8">
	<g display="inline">
		<defs>
			<rect id="SVGID_3_" x="4.538" y="4.977" width="39.849" height="39.85"/>
		</defs>
		<clipPath id="SVGID_4_">
			<use xlink:href="#SVGID_3_"  overflow="visible"/>
		</clipPath>
		<path clip-path="url(#SVGID_4_)" fill="#FFFFFF" d="M44.044,23.042c0,0-0.725-0.271-2.815-0.465
			c-2.562-0.236-3.333-1.195-4.184-2.39h-0.018c-0.105-0.283-0.22-0.563-0.345-0.838l0.011-0.011
			c-0.243-1.446-0.376-2.67,1.268-4.647c1.342-1.616,1.661-2.321,1.661-2.321c-0.313-0.8-1.072-1.558-1.072-1.558
			s-0.757-0.757-1.557-1.072c0,0-0.704,0.319-2.32,1.662c-1.976,1.643-3.201,1.511-4.647,1.268l-0.009,0.011
			c-0.275-0.125-0.556-0.238-0.841-0.345v-0.017c-1.194-0.852-2.152-1.624-2.389-4.183c-0.192-2.092-0.467-2.817-0.467-2.817
			c-0.788-0.343-1.858-0.343-1.858-0.343s-1.071,0-1.86,0.343c0,0-0.271,0.725-0.465,2.817c-0.235,2.559-1.197,3.332-2.389,4.183
			v0.017c-0.285,0.106-0.564,0.219-0.839,0.344l-0.01-0.01c-1.445,0.244-2.67,0.375-4.647-1.267
			C12.635,10.061,11.93,9.74,11.93,9.74c-0.8,0.315-1.557,1.072-1.557,1.072s-0.757,0.759-1.072,1.558c0,0,0.319,0.705,1.662,2.321
			c1.642,1.976,1.51,3.202,1.268,4.647l0.01,0.011c-0.125,0.274-0.237,0.555-0.344,0.838h-0.017
			c-0.852,1.195-1.624,2.154-4.183,2.39C5.605,22.77,4.88,23.043,4.88,23.043c-0.342,0.788-0.342,1.858-0.342,1.858
			s0,1.071,0.342,1.859c0,0,0.724,0.273,2.817,0.465c2.558,0.236,3.331,1.197,4.183,2.39h0.017c0.107,0.285,0.219,0.565,0.344,0.84
			l-0.01,0.01c0.244,1.446,0.375,2.671-1.267,4.647c-1.344,1.617-1.664,2.321-1.664,2.321c0.315,0.799,1.072,1.556,1.072,1.556
			s0.758,0.758,1.557,1.071c0,0,0.705-0.317,2.321-1.66c1.978-1.643,3.203-1.51,4.648-1.269l0.01-0.009
			c0.275,0.124,0.555,0.235,0.839,0.344v0.017c1.194,0.851,2.154,1.622,2.389,4.184c0.194,2.091,0.465,2.816,0.465,2.816
			c0.791,0.342,1.86,0.342,1.86,0.342s1.071,0,1.858-0.342c0,0,0.274-0.726,0.467-2.816c0.236-2.562,1.196-3.332,2.389-4.184v-0.017
			c0.285-0.108,0.565-0.22,0.841-0.345l0.009,0.01c1.446-0.243,2.672-0.374,4.647,1.269c1.616,1.342,2.322,1.66,2.322,1.66
			c0.798-0.314,1.555-1.071,1.555-1.071s0.759-0.757,1.072-1.557c0,0-0.317-0.704-1.661-2.32c-1.644-1.977-1.511-3.201-1.268-4.647
			l-0.011-0.01c0.125-0.274,0.239-0.555,0.345-0.84h0.018c0.85-1.193,1.622-2.153,4.184-2.39c2.091-0.193,2.816-0.465,2.816-0.465
			c0.342-0.789,0.342-1.859,0.342-1.859S44.387,23.829,44.044,23.042 M24.462,34.22c-5.147,0-9.318-4.171-9.318-9.318
			s4.171-9.319,9.318-9.319c5.146,0,9.318,4.172,9.318,9.319S29.608,34.22,24.462,34.22"/>
	</g>
</g>
<g display="none" opacity="0.8">
	<g display="inline">
		<defs>
			<rect id="SVGID_5_" x="4.063" y="4.688" width="40.25" height="40.25"/>
		</defs>
		<clipPath id="SVGID_6_">
			<use xlink:href="#SVGID_5_"  overflow="visible"/>
		</clipPath>
		<path clip-path="url(#SVGID_6_)" fill="#FFFFFF" d="M24.188,4.688c-11.115,0-20.125,9.01-20.125,20.125
			c0,11.114,9.01,20.125,20.125,20.125c11.115,0,20.125-9.011,20.125-20.125C44.313,13.698,35.303,4.688,24.188,4.688
			 M26.546,34.842c0,1.284-0.985,2.27-2.333,2.27s-2.334-0.985-2.334-2.27v-0.327c0-1.282,0.986-2.268,2.334-2.268
			s2.333,0.985,2.333,2.268V34.842z M32.595,20.379c0,4.142-2.991,6.015-6.64,6.639l-0.132,1.514
			c-0.131,0.722-0.657,1.314-1.413,1.314h-0.197c-0.756,0-1.314-0.56-1.414-1.314l-0.329-2.827
			c-0.132-0.887,0.394-1.545,1.282-1.644c3.09-0.296,4.801-1.479,4.801-3.55v-0.066c0-1.84-1.415-3.123-3.782-3.123
			c-1.742,0-3.156,0.625-4.471,1.808c-0.329,0.263-0.755,0.46-1.216,0.46c-1.019,0-1.841-0.822-1.841-1.808
			c0-0.494,0.198-1.019,0.658-1.413c1.742-1.644,3.944-2.729,6.968-2.729c4.602,0,7.726,2.563,7.726,6.674V20.379z"/>
	</g>
</g>
<g opacity="0.8">
	<g>
		<defs>
			<rect id="SVGID_7_" x="4.538" y="8.563" width="39.714" height="32.906"/>
		</defs>
		<clipPath id="SVGID_8_">
			<use xlink:href="#SVGID_7_"  overflow="visible"/>
		</clipPath>
		<path clip-path="url(#SVGID_8_)" fill="#FFFFFF" d="M34.911,27.398h-4.266c-0.899,0-1.651-0.722-1.651-1.652
			c0-0.9,0.752-1.652,1.651-1.652h4.266V19.92c0-0.962,0.751-1.712,1.712-1.712c0.932,0,1.712,0.75,1.712,1.712v4.174H42.6
			c0.901,0,1.652,0.752,1.652,1.652c0,0.931-0.751,1.652-1.652,1.652h-4.265v4.174c0,0.962-0.78,1.712-1.712,1.712
			c-0.961,0-1.712-0.75-1.712-1.712V27.398z"/>
		<path clip-path="url(#SVGID_8_)" fill="#FFFFFF" d="M37.444,41.469c0,0,0-2.263-0.189-3.445c-0.154-0.934-1.448-2.167-6.948-4.19
			c-5.417-1.988-5.083-1.02-5.083-4.678c0-2.374,1.208-0.995,1.979-5.502c0.301-1.774,0.54-0.592,1.191-3.437
			c0.343-1.491-0.231-1.602-0.163-2.313c0.069-0.711,0.138-1.346,0.266-2.802c0.154-1.799-1.518-6.538-7.506-6.538
			c-5.99,0-7.661,4.739-7.498,6.547c0.128,1.448,0.197,2.091,0.266,2.802c0.068,0.71-0.506,0.822-0.163,2.313
			c0.651,2.836,0.891,1.653,1.191,3.437c0.77,4.507,1.979,3.127,1.979,5.501c0,3.668,0.334,2.699-5.082,4.679
			c-5.501,2.015-6.805,3.256-6.95,4.191c-0.197,1.173-0.197,3.436-0.197,3.436h16.453H37.444z"/>
	</g>
</g>
</svg>
