<?xml version="1.0" encoding="utf-8"?>
<!-- Generator: Adobe Illustrator 16.0.0, SVG Export Plug-In . SVG Version: 6.00 Build 0)  -->
<!DOCTYPE svg PUBLIC "-//W3C//DTD SVG 1.1//EN" "http://www.w3.org/Graphics/SVG/1.1/DTD/svg11.dtd">
<svg version="1.1" id="Layer_1" xmlns="http://www.w3.org/2000/svg" xmlns:xlink="http://www.w3.org/1999/xlink" x="0px" y="0px"
	 width="212px" height="92px" viewBox="0 0 212 92" enable-background="new 0 0 212 92" xml:space="preserve">

<g id="manguera" display="none">
		<path display="inline" fill="#474747" d="M47.641,10.395c-0.261-0.042-6.454-1.009-9.931-1.009c-0.584,0-1.071-0.069-1.456-0.015
			c-2.244,0.317-8.331,1.894-10.514,2.366h-0.006c-0.063,0-0.166-0.157-0.283-0.245c-0.281-0.289-0.726-0.508-1.269-0.508
			c-0.329,0-0.655,0.121-0.965,0.309c-0.599,0.365-3.026,2.06-3.967,2.713c-0.328-0.08-0.8-0.152-1.384-0.152
			c-1.28,0-2.592,0.361-3.901,1.065c-3.02,1.627-5.612,3.922-5.712,4.012c-0.723,0.627-1.763,2.125-1.069,3.754
			c0.445,1.05,0.362,1.304-0.353,2.411c-0.777,1.202-4.545,7.333-4.904,7.919c-0.594,0.805-0.997,2.01-0.206,2.818
			c0.625,0.639,2.359,1.325,2.891,1.527c1.49,0.534,7.919,2.419,8.176,2.495c0.055,0.018,0.561,0.169,1.254,0.169
			c0.876,0,2.13-0.24,3.128-1.385c1.374-1.581,5.582-7.026,5.754-7.25c0.045-0.058,1.054-1.356,0.889-2.995l0.002-0.004
			c0.356-0.166,0.792-0.483,1.267-1.083c0.088-0.112,0.179-0.219,0.272-0.327c0.703-0.832,1.577-1.868,1.498-4.227
			c-0.023-0.734-0.107-1.432-0.182-2.048c-0.121-1.008-0.247-2.05,0.059-2.309c0.881-0.748,0.97-1.553,0.927-2.024
			c2.326-0.608,8.017-2.067,10.061-2.357c0.34-0.047,0.784-0.072,1.325-0.072c3.113,0,8.196,0.806,8.247,0.814
			c0.27,0.042,0.603-0.035,0.81-0.21c0.205-0.175,0.384-0.433,0.384-0.703V11.31C48.482,10.854,48.091,10.467,47.641,10.395
			 M25.533,16.987c-1.067,0.901-0.888,2.379-0.7,3.944c0.073,0.605,0.15,1.232,0.171,1.885c0.053,1.649-0.44,2.234-1.064,2.973
			c-0.102,0.119-0.204,0.241-0.304,0.367c-0.329,0.411-0.547,0.532-0.609,0.56c-0.347,0.033-0.649,0.258-0.777,0.591l-0.249,0.648
			c-0.061,0.158-0.078,0.328-0.048,0.495c0.168,0.934-0.479,1.793-0.488,1.804c-0.044,0.055-4.354,5.634-5.692,7.172
			c-0.434,0.497-1.016,0.748-1.731,0.748h0c-0.409,0-0.706-0.085-0.717-0.087c-0.067-0.022-6.648-1.951-8.073-2.462
			c-0.766-0.289-1.734-0.738-2.1-0.997c0.045-0.146,0.163-0.372,0.28-0.531c0.018-0.024,0.036-0.049,0.05-0.075
			c0.042-0.067,4.115-6.7,4.904-7.917c0.849-1.313,1.306-2.246,0.501-4.141c-0.339-0.799,0.575-1.628,0.587-1.639
			c0.026-0.023,2.545-2.25,5.37-3.771c1.035-0.559,2.052-0.841,3.023-0.841c0.734,0,1.174,0.172,1.174,0.172
			c0.295,0.127,0.635,0.094,0.9-0.09c0.962-0.671,3.54-2.458,4.194-2.88c0.005,0.008,0.011,0.015,0.016,0.024
			c0.149,0.349,0.279,0.725,0.416,1.119c0.31,0.896,0.63,1.817,1.228,2.612C25.743,16.797,25.603,16.927,25.533,16.987
			 M46.595,12.771c-1.89-0.244-5.117-0.677-7.512-0.677c-0.635,0-1.173,0.029-1.604,0.09c-2.247,0.319-8.375,1.899-10.541,2.467
			l-0.456-1.005c2.352-0.614,7.984-2.058,10.017-2.346c0.295-0.042,0.734-0.063,1.224-0.063c2.626,0,6.983,0.607,8.872,0.867V12.771
			L46.595,12.771z"/>
		<path display="inline" fill="#474747" d="M18.927,25.113c-0.29-0.319-0.574-0.58-0.81-0.746c-0.909-0.638-3.411-0.857-4.157-0.909
			c-0.341-0.024-0.659,0.14-0.843,0.423L7.5,32.647c-0.26,0.406-0.166,0.943,0.218,1.235c0.662,0.504,4.059,3.021,5.977,3.021h0
			c0.162,0,0.319-0.017,0.465-0.049c2.757-0.619,6.333-5.526,6.496-8.139c0.066-1.085-0.764-2.486-1.592-3.447
			C19.023,25.212,18.978,25.16,18.927,25.113 M14.375,25.353c0.195,0.018,0.386,0.041,0.575,0.063
			c-0.225,0.104-0.419,0.229-0.561,0.374c-1.589,1.632-1.61,7.434-1.598,8.58c0.001,0.189,0.06,0.365,0.16,0.511
			c-0.954-0.354-2.326-1.191-3.424-1.966L14.375,25.353z M14.586,34.666c0.035-0.1,0.056-0.204,0.055-0.315
			c-0.03-2.936,0.372-6.548,1.041-7.24c0.233-0.158,1.213-0.317,2.195-0.37c0.511,0.674,0.953,1.498,0.93,1.86
			C18.701,30.328,16.363,33.533,14.586,34.666"/>
	</g>
</svg>