<?xml version="1.0" encoding="utf-8"?>
<!-- Generator: Adobe Illustrator 16.0.0, SVG Export Plug-In . SVG Version: 6.00 Build 0)  -->
<!DOCTYPE svg PUBLIC "-//W3C//DTD SVG 1.1//EN" "http://www.w3.org/Graphics/SVG/1.1/DTD/svg11.dtd">
<svg version="1.1" id="Layer_3" xmlns="http://www.w3.org/2000/svg" xmlns:xlink="http://www.w3.org/1999/xlink" x="0px" y="0px"
	 width="41px" height="41px" viewBox="0 0 41 41" enable-background="new 0 0 41 41" xml:space="preserve">
<path fill="#F8A628" d="M28.746,28.634c-0.077,0.103-0.152,0.201-0.24,0.291c-0.733,0.736-1.926,0.736-2.66,0
	c-0.728-0.729-0.728-1.919,0-2.655c0.067-0.064,0.141-0.127,0.217-0.184c1.888-1.62,3.079-4.016,3.079-6.685
	c0-2.6-1.131-4.93-2.921-6.542c-0.135-0.08-0.262-0.172-0.375-0.291c-0.728-0.73-0.728-1.92,0-2.655c0.734-0.735,1.927-0.735,2.66,0
	c0.061,0.062,0.111,0.131,0.163,0.187c2.552,2.288,4.168,5.615,4.168,9.301C32.837,23.058,31.254,26.347,28.746,28.634
	 M14.464,12.868c0.131-0.079,0.261-0.174,0.374-0.287c0.734-0.737,0.734-1.923,0-2.658c-0.734-0.733-1.925-0.733-2.656,0
	c-0.05,0.052-0.103,0.111-0.146,0.162c-2.565,2.296-4.181,5.614-4.181,9.316c0,3.642,1.571,6.924,4.067,9.202
	c0.075,0.12,0.156,0.231,0.259,0.336c0.731,0.726,1.921,0.726,2.656,0c0.734-0.743,0.734-1.925,0-2.67
	c-0.06-0.052-0.12-0.1-0.179-0.15v-0.012c-1.904-1.616-3.118-4.018-3.118-6.706C11.541,16.816,12.67,14.479,14.464,12.868
	 M24.285,15.078c-0.036-0.028-0.063-0.057-0.084-0.083c-0.25-0.251-0.574-0.388-0.919-0.388c-0.354,0-0.677,0.136-0.927,0.388
	c-0.512,0.51-0.512,1.332,0,1.836c0.064,0.062,0.133,0.118,0.207,0.173c0.677,0.623,1.064,1.498,1.064,2.411
	c0,0.954-0.414,1.866-1.147,2.49l-0.027,0.019c-0.027,0.021-0.055,0.048-0.097,0.089c-0.248,0.243-0.373,0.567-0.373,0.92
	c0,0.346,0.125,0.678,0.373,0.919c0.25,0.249,0.573,0.387,0.927,0.387c0.345,0,0.669-0.138,0.919-0.387
	c0.039-0.041,0.084-0.09,0.125-0.145c1.195-1.11,1.871-2.675,1.871-4.292C26.197,17.772,25.51,16.189,24.285,15.078 M18.333,16.838
	c0.249-0.247,0.387-0.58,0.387-0.924c0-0.346-0.138-0.673-0.387-0.918c-0.25-0.251-0.573-0.38-0.918-0.38
	c-0.352,0-0.678,0.129-0.926,0.38c-0.02,0.026-0.049,0.054-0.069,0.083c-1.229,1.111-1.936,2.688-1.936,4.338
	c0,1.61,0.685,3.165,1.867,4.279c0.041,0.061,0.089,0.108,0.138,0.163c0.248,0.243,0.574,0.381,0.926,0.381
	c0.345,0,0.668-0.138,0.918-0.381c0.249-0.247,0.387-0.572,0.387-0.917c0-0.352-0.138-0.679-0.393-0.933
	c-0.029-0.028-0.048-0.043-0.076-0.063l-0.028-0.034c-0.73-0.629-1.16-1.535-1.16-2.495c0-0.913,0.387-1.782,1.057-2.411
	C18.196,16.958,18.271,16.902,18.333,16.838 M32.44,2.953c-0.061-0.066-0.143-0.122-0.229-0.185
	c-0.972-0.639-2.284-0.379-2.924,0.595c-0.605,0.908-0.411,2.123,0.425,2.8c0.025,0.021,0.059,0.032,0.082,0.057
	c0.022,0.018,0.055,0.049,0.086,0.063c3.999,2.939,6.607,7.674,6.607,13.012c0,8.917-7.23,16.136-16.145,16.136
	c-8.912,0-16.133-7.219-16.133-16.136c0-5.314,2.567-10.016,6.534-12.965h-0.006h0.006c0.964-0.655,1.211-1.958,0.561-2.921
	C10.65,2.447,9.348,2.192,8.382,2.847C8.32,2.887,8.264,2.934,8.203,2.981C3.224,6.687,0,12.623,0,19.295
	c0,11.239,9.11,20.348,20.344,20.348c11.236,0,20.346-9.108,20.346-20.348C40.689,12.599,37.442,6.662,32.44,2.953"/>
</svg>
