<?xml version="1.0" encoding="utf-8"?>
<!-- Generator: Adobe Illustrator 16.0.0, SVG Export Plug-In . SVG Version: 6.00 Build 0)  -->
<!DOCTYPE svg PUBLIC "-//W3C//DTD SVG 1.1//EN" "http://www.w3.org/Graphics/SVG/1.1/DTD/svg11.dtd">
<svg version="1.1" xmlns="http://www.w3.org/2000/svg" xmlns:xlink="http://www.w3.org/1999/xlink" x="0px" y="0px" width="50px"
	 height="50px" viewBox="0 0 50 50" enable-background="new 0 0 50 50" xml:space="preserve">
<g id="icons">
    <g id="on">
	   <path display="none" fill="#F79920" d="M44.19,25c0-10.932-8.894-19.826-19.826-19.826C13.432,5.174,4.538,14.068,4.538,25
		c0,10.933,8.894,19.826,19.826,19.826C35.297,44.826,44.19,35.933,44.19,25 M26.311,24.97c0,1.039-0.842,1.881-1.882,1.881
		c-1.039,0-1.881-0.842-1.881-1.881v-9.785c0-1.039,0.842-1.882,1.881-1.882s1.882,0.842,1.882,1.882V24.97z M37.166,25.033
		c0,7.059-5.742,12.802-12.802,12.802c-7.06,0-12.803-5.743-12.803-12.802c0-3.422,1.333-6.639,3.755-9.056
		c0.367-0.367,0.848-0.55,1.329-0.55c0.482,0,0.964,0.183,1.331,0.551c0.735,0.736,0.734,1.927-0.001,2.661
		c-1.708,1.708-2.65,3.978-2.65,6.394c0,4.983,4.055,9.038,9.039,9.038c4.983,0,9.038-4.055,9.038-9.038
		c0-2.414-0.939-4.684-2.646-6.391c-0.734-0.736-0.733-1.927,0-2.662c0.736-0.735,1.928-0.734,2.662,0.001
		C35.836,18.399,37.166,21.614,37.166,25.033"/>
    </g>
	<g id="recibos" display="none" opacity="0.8">
		<path display="inline" fill="#474747" d="M30.138,38.259H13.055c-2.514,0-4.551-2.038-4.551-4.552V13.378
			c0-4.454,3.609-8.063,8.063-8.063h13.571c2.514,0,4.551,2.039,4.551,4.553v23.84C34.688,36.221,32.651,38.259,30.138,38.259"/>
		<path display="inline" fill="#474747" stroke="#FFFFFF" stroke-width="2" stroke-miterlimit="10" d="M17.292,44.046
			c-2.841,0-5.151-2.311-5.151-5.15V14.348c0-2.841,2.311-5.151,5.151-5.151h17.79c2.841,0,5.151,2.311,5.151,5.151v24.547
			c0,2.84-2.311,5.15-5.151,5.15H17.292z"/>
		<path display="inline" fill="#FFFFFF" d="M32.791,32.021c-1.19,1.543-2.668,2.581-4.939,2.581c-3.263,0-5.555-2.094-6.393-5.225
			h-1.19c-0.529,0-0.948-0.42-0.948-0.949c0-0.508,0.419-0.947,0.948-0.947h0.859c-0.022-0.265-0.022-0.552-0.022-0.839
			c0-0.33,0-0.683,0.044-1.014h-0.881c-0.529,0-0.948-0.417-0.948-0.925c0-0.529,0.419-0.948,0.948-0.948h1.233
			c0.86-2.976,3.131-5.114,6.262-5.114c2.337,0,3.747,0.927,4.894,2.249c0.178,0.175,0.354,0.507,0.354,0.904
			c0,0.705-0.597,1.278-1.301,1.278c-0.463,0-0.771-0.221-0.948-0.441c-0.839-1.014-1.698-1.566-3.064-1.566
			c-1.586,0-2.777,1.037-3.395,2.69h3.924c0.508,0,0.926,0.419,0.926,0.948c0,0.508-0.418,0.925-0.926,0.925h-4.343
			c-0.044,0.308-0.044,0.64-0.044,0.971c0,0.308,0,0.595,0.022,0.882h4.365c0.508,0,0.926,0.439,0.926,0.947
			c0,0.529-0.418,0.949-0.926,0.949h-3.968c0.617,1.764,1.874,2.799,3.616,2.799c1.323,0,2.182-0.639,3.021-1.676
			c0.22-0.263,0.528-0.44,0.947-0.44c0.662,0,1.213,0.528,1.213,1.191C33.055,31.582,32.922,31.868,32.791,32.021"/>
		<rect x="8.503" y="5.314" display="inline" fill="none" width="32.685" height="39.686"/>
	</g>
	<g id="recomendadas" display="none" opacity="0.8">
		<g display="inline">
			<defs>
				<rect id="SVGID_1_" x="4.5" y="4.92" width="41.003" height="40.08"/>
			</defs>
			<clipPath id="SVGID_2_">
				<use xlink:href="#SVGID_1_"  overflow="visible"/>
			</clipPath>
			<path clip-path="url(#SVGID_2_)" fill="#474747" d="M30.066,4.921c-0.186,0.007-0.374,0.042-0.559,0.11
				c-0.631,0.241-0.813,0.768-1.47,4.083c-0.663,3.351-1.025,4.138-2.65,5.942c-3.067,3.552-3.129,4.987-5.606,8.181
				c-1.157,1.493-2.897,2.169-4.575,2.487c0.162,5.652,0.012,11.318,0.065,16.974c0.025,0.146,0.041,0.295,0.048,0.444
				c0.612,0.029,1.205,0.063,1.768,0.105c0.768,0.075,1.985,0.295,2.704,0.493c6.658,1.358,13.12,1.048,20.29,1.037
				c1.321,0,2.385-1.062,2.385-2.384c0-1.131-0.779-2.071-1.832-2.318h1.382c1.804,0,3.257-1.452,3.257-3.256
				c0-1.428-0.907-2.636-2.18-3.078c1.391-0.372,2.407-1.636,2.407-3.146c0-1.604-1.148-2.93-2.673-3.203
				c1.399-0.438,2.41-1.741,2.41-3.289c0-1.91-1.538-3.449-3.448-3.449h-9.208c-1.238-0.095-1.304-0.355-1.304-0.975
				c0-0.298,0.399-1.609,0.887-2.912c1.175-3.382,2.752-8.211,0.252-10.701C31.674,5.382,30.868,4.888,30.066,4.921z"/>
			<path clip-path="url(#SVGID_2_)" fill="#474747" d="M5.787,24.097c-0.713,0-1.287,0.574-1.287,1.286v18.331
				C4.5,44.427,5.074,45,5.787,45h7.075c0.713,0,1.287-0.573,1.287-1.287V25.382c0-0.712-0.574-1.286-1.287-1.286H5.787z
				 M11.052,39.616c1.065,0,1.93,0.864,1.93,1.93s-0.864,1.93-1.93,1.93s-1.93-0.864-1.93-1.93S9.987,39.616,11.052,39.616"/>
		</g>
	</g>
	<g id="distancia_1_" display="none">
		<polygon display="inline" fill="#F79920" points="19.94,40.527 3.967,44.806 8.246,28.832 		"/>
		<polygon display="inline" fill="#F79920" points="39.573,20.893 43.854,4.92 27.881,9.199 		"/>
		
			<rect x="22" y="9" transform="matrix(0.707 0.7072 -0.7072 0.707 24.9181 -9.1479)" display="inline" fill="#F79920" width="3" height="33"/>
	</g>
	<g id="precio" display="none" opacity="0.8">
		<g display="inline">
			<defs>
				<rect id="SVGID_3_" x="8.355" y="3.75" width="32.075" height="41.056"/>
			</defs>
			<clipPath id="SVGID_4_">
				<use xlink:href="#SVGID_3_"  overflow="visible"/>
			</clipPath>
			<path clip-path="url(#SVGID_4_)" fill="#474747" d="M40.363,19.815L35.878,8.432c-0.153-0.409-0.576-0.67-1.022-0.604
				l-6.396,0.95c-0.274-0.321-0.56-0.631-0.854-0.927c-1.874-1.881-4.166-3.242-6.892-4.062c-0.499-0.149-1.024,0.134-1.174,0.635
				c-0.15,0.5,0.133,1.027,0.632,1.178c2.418,0.727,4.446,1.93,6.102,3.59c1.666,1.67,2.963,3.813,3.904,6.403
				c0.179,0.491,0.718,0.745,1.208,0.567c0.488-0.179,0.741-0.721,0.564-1.212c-0.351-0.961-0.745-1.868-1.188-2.72
				c3.223-0.416,5.217,4.286,1.98,6.163c-1.573,0.913-3.59,0.368-4.493-1.206l-0.004,0.002l-0.003-0.004
				c-0.53-0.923-0.563-2.005-0.18-2.926c-0.791-1.538-1.741-2.871-2.859-3.993c-0.303-0.304-0.618-0.592-0.946-0.865L22.83,9.614
				c-0.293,0.029-0.569,0.195-0.728,0.471L8.482,33.776c-0.261,0.454-0.107,1.036,0.346,1.299l16.564,9.604
				c0.451,0.262,1.03,0.106,1.29-0.35l13.622-23.692h-0.002C40.442,20.395,40.474,20.094,40.363,19.815 M31.063,27.589
				c-0.372,0.698-1.262,0.938-1.959,0.567c-0.454-0.243-0.638-0.61-0.71-0.896c-0.223-0.926-0.629-1.591-1.483-2.047
				c-1.028-0.549-2.085-0.375-3.033,0.351l2.423,1.294c0.486,0.261,0.675,0.876,0.413,1.363c-0.261,0.49-0.868,0.659-1.354,0.397
				l-2.842-1.518c-0.12,0.182-0.232,0.391-0.343,0.6c-0.111,0.21-0.213,0.401-0.29,0.585l2.841,1.518
				c0.488,0.261,0.675,0.876,0.415,1.364c-0.263,0.49-0.867,0.658-1.355,0.397l-2.458-1.314c-0.114,1.262,0.38,2.265,1.496,2.86
				c0.872,0.467,1.625,0.398,2.609,0.027c0.339-0.132,0.729-0.147,1.129,0.066c0.662,0.354,0.914,1.183,0.56,1.845
				c-0.168,0.314-0.465,0.536-0.671,0.628c-1.582,0.655-3.141,0.764-4.902-0.177c-2.666-1.425-3.622-3.999-3.043-6.758l-0.802-0.429
				c-0.487-0.262-0.683-0.859-0.423-1.348c0.261-0.487,0.877-0.674,1.365-0.413l0.522,0.279c0.076-0.184,0.169-0.358,0.271-0.55
				c0.112-0.209,0.233-0.436,0.362-0.636l-0.523-0.279c-0.488-0.261-0.684-0.858-0.423-1.346c0.261-0.488,0.875-0.675,1.364-0.414
				l0.854,0.457c1.945-1.919,4.588-2.59,7.168-1.211c1.813,0.97,2.548,2.191,2.943,3.634C31.265,26.756,31.279,27.188,31.063,27.589
				"/>
		</g>
	</g>
	<g id="manguera" display="none">
		<path display="inline" fill="#474747" d="M47.641,10.395c-0.261-0.042-6.454-1.009-9.931-1.009c-0.584,0-1.071-0.069-1.456-0.015
			c-2.244,0.317-8.331,1.894-10.514,2.366h-0.006c-0.063,0-0.166-0.157-0.283-0.245c-0.281-0.289-0.726-0.508-1.269-0.508
			c-0.329,0-0.655,0.121-0.965,0.309c-0.599,0.365-3.026,2.06-3.967,2.713c-0.328-0.08-0.8-0.152-1.384-0.152
			c-1.28,0-2.592,0.361-3.901,1.065c-3.02,1.627-5.612,3.922-5.712,4.012c-0.723,0.627-1.763,2.125-1.069,3.754
			c0.445,1.05,0.362,1.304-0.353,2.411c-0.777,1.202-4.545,7.333-4.904,7.919c-0.594,0.805-0.997,2.01-0.206,2.818
			c0.625,0.639,2.359,1.325,2.891,1.527c1.49,0.534,7.919,2.419,8.176,2.495c0.055,0.018,0.561,0.169,1.254,0.169
			c0.876,0,2.13-0.24,3.128-1.385c1.374-1.581,5.582-7.026,5.754-7.25c0.045-0.058,1.054-1.356,0.889-2.995l0.002-0.004
			c0.356-0.166,0.792-0.483,1.267-1.083c0.088-0.112,0.179-0.219,0.272-0.327c0.703-0.832,1.577-1.868,1.498-4.227
			c-0.023-0.734-0.107-1.432-0.182-2.048c-0.121-1.008-0.247-2.05,0.059-2.309c0.881-0.748,0.97-1.553,0.927-2.024
			c2.326-0.608,8.017-2.067,10.061-2.357c0.34-0.047,0.784-0.072,1.325-0.072c3.113,0,8.196,0.806,8.247,0.814
			c0.27,0.042,0.603-0.035,0.81-0.21c0.205-0.175,0.384-0.433,0.384-0.703V11.31C48.482,10.854,48.091,10.467,47.641,10.395
			 M25.533,16.987c-1.067,0.901-0.888,2.379-0.7,3.944c0.073,0.605,0.15,1.232,0.171,1.885c0.053,1.649-0.44,2.234-1.064,2.973
			c-0.102,0.119-0.204,0.241-0.304,0.367c-0.329,0.411-0.547,0.532-0.609,0.56c-0.347,0.033-0.649,0.258-0.777,0.591l-0.249,0.648
			c-0.061,0.158-0.078,0.328-0.048,0.495c0.168,0.934-0.479,1.793-0.488,1.804c-0.044,0.055-4.354,5.634-5.692,7.172
			c-0.434,0.497-1.016,0.748-1.731,0.748h0c-0.409,0-0.706-0.085-0.717-0.087c-0.067-0.022-6.648-1.951-8.073-2.462
			c-0.766-0.289-1.734-0.738-2.1-0.997c0.045-0.146,0.163-0.372,0.28-0.531c0.018-0.024,0.036-0.049,0.05-0.075
			c0.042-0.067,4.115-6.7,4.904-7.917c0.849-1.313,1.306-2.246,0.501-4.141c-0.339-0.799,0.575-1.628,0.587-1.639
			c0.026-0.023,2.545-2.25,5.37-3.771c1.035-0.559,2.052-0.841,3.023-0.841c0.734,0,1.174,0.172,1.174,0.172
			c0.295,0.127,0.635,0.094,0.9-0.09c0.962-0.671,3.54-2.458,4.194-2.88c0.005,0.008,0.011,0.015,0.016,0.024
			c0.149,0.349,0.279,0.725,0.416,1.119c0.31,0.896,0.63,1.817,1.228,2.612C25.743,16.797,25.603,16.927,25.533,16.987
			 M46.595,12.771c-1.89-0.244-5.117-0.677-7.512-0.677c-0.635,0-1.173,0.029-1.604,0.09c-2.247,0.319-8.375,1.899-10.541,2.467
			l-0.456-1.005c2.352-0.614,7.984-2.058,10.017-2.346c0.295-0.042,0.734-0.063,1.224-0.063c2.626,0,6.983,0.607,8.872,0.867V12.771
			L46.595,12.771z"/>
		<path display="inline" fill="#474747" d="M18.927,25.113c-0.29-0.319-0.574-0.58-0.81-0.746c-0.909-0.638-3.411-0.857-4.157-0.909
			c-0.341-0.024-0.659,0.14-0.843,0.423L7.5,32.647c-0.26,0.406-0.166,0.943,0.218,1.235c0.662,0.504,4.059,3.021,5.977,3.021h0
			c0.162,0,0.319-0.017,0.465-0.049c2.757-0.619,6.333-5.526,6.496-8.139c0.066-1.085-0.764-2.486-1.592-3.447
			C19.023,25.212,18.978,25.16,18.927,25.113 M14.375,25.353c0.195,0.018,0.386,0.041,0.575,0.063
			c-0.225,0.104-0.419,0.229-0.561,0.374c-1.589,1.632-1.61,7.434-1.598,8.58c0.001,0.189,0.06,0.365,0.16,0.511
			c-0.954-0.354-2.326-1.191-3.424-1.966L14.375,25.353z M14.586,34.666c0.035-0.1,0.056-0.204,0.055-0.315
			c-0.03-2.936,0.372-6.548,1.041-7.24c0.233-0.158,1.213-0.317,2.195-0.37c0.511,0.674,0.953,1.498,0.93,1.86
			C18.701,30.328,16.363,33.533,14.586,34.666"/>
	</g>
	<g id="gasolineras" display="none">
		<path display="inline" fill="#474747" d="M39.17,19.146c0-7.887-6.398-14.284-14.285-14.284c-7.886,0-14.284,6.397-14.284,14.284
			c0,0.604,0.042,1.188,0.115,1.771c0.187,2.209,1.75,10.679,14.181,25.225c14.617-17.098,14.211-25.537,14.211-25.537
			C39.149,20.125,39.17,19.646,39.17,19.146"/>
	</g>
	<g id="invitar" display="none">
		<path display="inline" fill="#474747" d="M37.974,28.237h-5.262c-1.111,0-2.039-0.89-2.039-2.038c0-1.11,0.928-2.038,2.039-2.038
			h5.262v-5.15c0-1.185,0.927-2.112,2.111-2.112c1.148,0,2.113,0.927,2.113,2.112v5.15h5.261c1.111,0,2.039,0.928,2.039,2.038
			c0,1.148-0.928,2.038-2.039,2.038h-5.261v5.15c0,1.187-0.965,2.113-2.113,2.113c-1.185,0-2.111-0.927-2.111-2.113V28.237z
			 M41.099,45.597c0,0,0-2.792-0.232-4.249c-0.191-1.154-1.787-2.675-8.574-5.171c-6.682-2.453-6.27-1.259-6.27-5.771
			c0-2.929,1.49-1.228,2.442-6.789c0.37-2.187,0.667-0.729,1.469-4.238c0.423-1.841-0.284-1.978-0.199-2.854
			c0.085-0.878,0.168-1.661,0.327-3.458C30.251,10.847,28.19,5,20.799,5c-7.389,0-9.451,5.847-9.249,8.078
			c0.159,1.786,0.243,2.58,0.327,3.457c0.085,0.878-0.624,1.016-0.201,2.855c0.803,3.499,1.1,2.041,1.47,4.239
			c0.951,5.561,2.441,3.859,2.441,6.787c0,4.525,0.413,3.331-6.269,5.771c-6.787,2.486-8.395,4.019-8.574,5.171
			c-0.243,1.447-0.243,4.239-0.243,4.239h20.297H41.099z"/>
	</g>
	<g id="preferencias" display="none">
		<path display="inline" fill="#474747" d="M45.112,23.574c0,0-0.73-0.275-2.845-0.47c-2.585-0.239-3.366-1.208-4.226-2.415h-0.018
			c-0.107-0.286-0.223-0.57-0.348-0.847l0.01-0.011c-0.246-1.46-0.379-2.698,1.281-4.696c1.356-1.633,1.68-2.344,1.68-2.344
			c-0.318-0.808-1.084-1.574-1.084-1.574s-0.766-0.765-1.572-1.083c0,0-0.712,0.322-2.346,1.679
			c-1.997,1.66-3.234,1.527-4.694,1.282l-0.011,0.01c-0.278-0.126-0.56-0.241-0.849-0.348v-0.017
			c-1.205-0.86-2.175-1.642-2.414-4.227c-0.194-2.114-0.469-2.845-0.469-2.845c-0.797-0.347-1.879-0.347-1.879-0.347
			s-1.082,0-1.878,0.347c0,0-0.275,0.731-0.471,2.845c-0.238,2.585-1.208,3.367-2.414,4.227v0.017
			c-0.288,0.107-0.57,0.221-0.848,0.347l-0.01-0.009c-1.46,0.246-2.697,0.378-4.696-1.28c-1.632-1.356-2.344-1.68-2.344-1.68
			c-0.809,0.319-1.572,1.083-1.572,1.083s-0.766,0.767-1.083,1.574c0,0,0.322,0.712,1.679,2.344
			c1.659,1.998,1.525,3.236,1.281,4.696l0.01,0.011c-0.126,0.277-0.241,0.561-0.349,0.847h-0.016
			c-0.86,1.208-1.64,2.176-4.226,2.415c-2.114,0.194-2.847,0.47-2.847,0.47c-0.345,0.797-0.345,1.877-0.345,1.877
			s0,1.082,0.346,1.88c0,0,0.732,0.275,2.845,0.468c2.586,0.241,3.366,1.211,4.227,2.416h0.016c0.108,0.287,0.223,0.569,0.349,0.846
			l-0.01,0.012c0.246,1.461,0.378,2.698-1.281,4.696c-1.357,1.632-1.68,2.344-1.68,2.344c0.318,0.808,1.083,1.573,1.083,1.573
			s0.766,0.766,1.573,1.082c0,0,0.711-0.32,2.344-1.679c1.999-1.66,3.236-1.525,4.696-1.281l0.01-0.009
			c0.277,0.125,0.56,0.239,0.848,0.348v0.017c1.207,0.859,2.176,1.64,2.414,4.227c0.196,2.113,0.471,2.846,0.471,2.846
			c0.796,0.346,1.878,0.346,1.878,0.346s1.082,0,1.879-0.347c0,0,0.275-0.73,0.469-2.845c0.239-2.587,1.209-3.367,2.414-4.227
			v-0.017c0.289-0.108,0.57-0.223,0.849-0.348l0.011,0.009c1.46-0.245,2.697-0.379,4.694,1.281c1.634,1.356,2.346,1.681,2.346,1.681
			c0.808-0.32,1.572-1.084,1.572-1.084s0.766-0.766,1.084-1.573c0,0-0.322-0.712-1.68-2.344c-1.66-1.998-1.526-3.235-1.281-4.696
			l-0.01-0.012c0.125-0.276,0.24-0.559,0.348-0.846h0.018c0.858-1.206,1.641-2.175,4.226-2.416c2.113-0.193,2.846-0.468,2.846-0.468
			c0.346-0.798,0.346-1.88,0.346-1.88S45.459,24.371,45.112,23.574 M25.33,34.866c-5.2,0-9.414-4.215-9.414-9.414
			s4.214-9.414,9.414-9.414c5.198,0,9.414,4.215,9.414,9.414S30.528,34.866,25.33,34.866"/>
	</g>
	<g id="ayuda" display="none">
		<path display="inline" fill="#5D5D5D" d="M24.995,5.562c-11.118,0-20.13,9.013-20.13,20.13c0,11.118,9.012,20.13,20.13,20.13
			c11.118,0,20.131-9.013,20.131-20.13C45.126,14.575,36.113,5.562,24.995,5.562 M27.354,35.725c0,1.282-0.987,2.27-2.334,2.27
			c-1.349,0-2.335-0.987-2.335-2.27v-0.328c0-1.282,0.986-2.267,2.335-2.267c1.347,0,2.334,0.984,2.334,2.267V35.725z
			 M33.404,21.258c0,4.144-2.992,6.017-6.642,6.642l-0.132,1.514c-0.131,0.723-0.658,1.314-1.414,1.314H25.02
			c-0.757,0-1.315-0.56-1.414-1.314l-0.329-2.828c-0.13-0.888,0.394-1.546,1.283-1.645c3.09-0.295,4.801-1.479,4.801-3.55v-0.065
			c0-1.843-1.414-3.125-3.783-3.125c-1.741,0-3.155,0.625-4.471,1.809c-0.329,0.264-0.756,0.46-1.216,0.46
			c-1.02,0-1.841-0.821-1.841-1.807c0-0.495,0.197-1.021,0.657-1.415c1.743-1.644,3.946-2.729,6.971-2.729
			c4.604,0,7.727,2.564,7.727,6.674V21.258z"/>
	</g>
	<g id="openy" display="none">
		<path display="inline" fill="#F8A628" d="M34.326,34.226c-0.084,0.112-0.167,0.22-0.263,0.317c-0.801,0.805-2.103,0.805-2.904,0
			c-0.794-0.795-0.794-2.095,0-2.898c0.074-0.07,0.153-0.139,0.237-0.201c2.061-1.769,3.361-4.384,3.361-7.298
			c0-2.839-1.234-5.383-3.189-7.143c-0.146-0.087-0.285-0.188-0.409-0.317c-0.794-0.797-0.794-2.097,0-2.899
			c0.802-0.803,2.104-0.803,2.904,0c0.066,0.067,0.122,0.143,0.179,0.204c2.785,2.498,4.55,6.131,4.55,10.155
			C38.792,28.138,37.064,31.729,34.326,34.226 M18.732,17.012c0.144-0.086,0.285-0.19,0.409-0.313c0.801-0.804,0.801-2.1,0-2.902
			c-0.802-0.801-2.102-0.801-2.9,0c-0.055,0.057-0.112,0.121-0.16,0.177c-2.8,2.507-4.564,6.13-4.564,10.172
			c0,3.976,1.716,7.56,4.44,10.047c0.082,0.131,0.171,0.253,0.283,0.367c0.798,0.792,2.098,0.792,2.9,0
			c0.801-0.812,0.801-2.102,0-2.915c-0.066-0.057-0.131-0.109-0.196-0.164v-0.014c-2.079-1.765-3.404-4.386-3.404-7.321
			C15.541,21.322,16.774,18.771,18.732,17.012 M29.455,19.425c-0.039-0.031-0.068-0.062-0.092-0.09
			c-0.272-0.274-0.627-0.423-1.003-0.423c-0.386,0-0.739,0.149-1.012,0.423c-0.559,0.557-0.559,1.454,0,2.005
			c0.07,0.067,0.145,0.129,0.226,0.189c0.739,0.679,1.162,1.636,1.162,2.632c0,1.042-0.451,2.038-1.252,2.718l-0.03,0.021
			c-0.029,0.022-0.06,0.053-0.105,0.098c-0.271,0.265-0.407,0.619-0.407,1.004c0,0.377,0.137,0.74,0.407,1.003
			c0.272,0.272,0.626,0.423,1.012,0.423c0.376,0,0.73-0.15,1.003-0.423c0.043-0.044,0.092-0.098,0.137-0.157
			c1.306-1.213,2.043-2.921,2.043-4.686C31.543,22.366,30.792,20.638,29.455,19.425 M22.958,21.347
			c0.271-0.27,0.421-0.633,0.421-1.009c0-0.378-0.15-0.735-0.421-1.003c-0.274-0.274-0.626-0.415-1.003-0.415
			c-0.384,0-0.74,0.141-1.011,0.415c-0.021,0.028-0.054,0.059-0.075,0.09c-1.343,1.213-2.113,2.934-2.113,4.736
			c0,1.758,0.748,3.456,2.038,4.672c0.045,0.065,0.097,0.118,0.15,0.178c0.271,0.266,0.627,0.416,1.011,0.416
			c0.377,0,0.729-0.15,1.003-0.416c0.271-0.27,0.421-0.625,0.421-1.001c0-0.384-0.15-0.741-0.429-1.019
			c-0.031-0.031-0.053-0.047-0.083-0.069l-0.03-0.037c-0.797-0.687-1.267-1.676-1.267-2.724c0-0.997,0.422-1.945,1.153-2.632
			C22.808,21.477,22.889,21.417,22.958,21.347 M38.359,6.187c-0.066-0.072-0.155-0.133-0.249-0.202
			c-1.062-0.698-2.494-0.414-3.192,0.65c-0.661,0.991-0.449,2.318,0.464,3.057c0.027,0.023,0.063,0.035,0.089,0.063
			c0.025,0.02,0.061,0.053,0.095,0.068c4.365,3.209,7.214,8.379,7.214,14.207c0,9.735-7.895,17.617-17.628,17.617
			c-9.729,0-17.613-7.882-17.613-17.617c0-5.803,2.803-10.936,7.134-14.155h-0.007h0.007c1.053-0.716,1.322-2.139,0.612-3.19
			c-0.716-1.049-2.138-1.329-3.192-0.613c-0.067,0.043-0.129,0.095-0.196,0.147C6.46,10.263,2.94,16.744,2.94,24.029
			c0,12.271,9.947,22.216,22.211,22.216c12.269,0,22.215-9.944,22.215-22.216C47.366,16.719,43.82,10.236,38.359,6.187"/>
	</g>
	<g id="exclamation" display="none">
		<g display="inline">
			<path fill="#F8A628" d="M5.995,46.299c-3.558,0-5.015-2.486-3.235-5.525L22.168,7.622c1.78-3.039,4.689-3.039,6.471,0
				l19.408,33.151c1.78,3.04,0.324,5.525-3.235,5.525H5.995z"/>
			<g>
				<path fill="#FFFFFF" d="M22.479,18.508c0-0.804,0.658-1.463,1.462-1.463h2.926c0.806,0,1.462,0.659,1.462,1.463v13.164
					c0,0.805-0.656,1.462-1.462,1.462H23.94c-0.804,0-1.462-0.657-1.462-1.462V18.508z"/>
				<circle fill="#FFFFFF" cx="25.404" cy="38.985" r="2.926"/>
			</g>
		</g>
	</g>
	<g id="recibos_1_" display="none">
		<path display="inline" fill="#F8A628" d="M11.025,39.915c-1.661-0.644-2.839-2.252-2.839-4.138V13.24
			c0-4.344,3.521-7.864,7.865-7.864h15.39c1.984,0,3.662,1.302,4.231,3.098H17.48c-3.56,0-6.456,2.896-6.456,6.456V39.915z
			 M40.735,14.929v25.962c0,2.452-1.988,4.44-4.439,4.44H17.48c-2.453,0-4.44-1.988-4.44-4.44V14.929
			c0-2.452,1.987-4.439,4.44-4.439h18.815C38.747,10.489,40.735,12.477,40.735,14.929z M34.151,32.807c0-0.7-0.584-1.26-1.283-1.26
			c-0.443,0-0.769,0.186-1.002,0.467c-0.887,1.096-1.795,1.771-3.193,1.771c-1.842,0-3.172-1.096-3.825-2.962h4.196
			c0.537,0,0.979-0.442,0.979-1.001c0-0.537-0.442-1.003-0.979-1.003h-4.615c-0.023-0.304-0.023-0.607-0.023-0.933
			c0-0.35,0-0.699,0.046-1.026h4.592c0.537,0,0.979-0.442,0.979-0.979c0-0.559-0.442-1.001-0.979-1.001h-4.149
			c0.653-1.75,1.912-2.845,3.591-2.845c1.446,0,2.354,0.583,3.24,1.656c0.187,0.232,0.513,0.466,1.004,0.466
			c0.745,0,1.375-0.606,1.375-1.353c0-0.42-0.187-0.77-0.372-0.957c-1.214-1.399-2.706-2.377-5.178-2.377
			c-3.311,0-5.711,2.261-6.62,5.41h-1.306c-0.56,0-1.003,0.442-1.003,1.001c0,0.537,0.444,0.979,1.003,0.979h0.933
			c-0.047,0.351-0.047,0.722-0.047,1.073c0,0.304,0,0.606,0.024,0.886h-0.91c-0.56,0-1.003,0.466-1.003,1.003
			c0,0.559,0.444,1.001,1.003,1.001h1.258c0.886,3.313,3.312,5.526,6.762,5.526c2.401,0,3.964-1.096,5.223-2.728
			C34.012,33.459,34.151,33.155,34.151,32.807z"/>
	</g>
	<g id="favoritos" display="none">
		<path display="inline" fill="#595959" d="M17.279,31.014c-0.087,0.406-1.042,5.024-1.889,9.131l8.148-4.646
			c0.686-0.393,1.529-0.393,2.214,0l8.149,4.642l-1.898-9.181c-0.16-0.774,0.1-1.577,0.688-2.107l6.934-6.313l-9.322-1.031
			c-0.786-0.087-1.464-0.582-1.793-1.306l-3.865-8.547l-3.861,8.547c-0.326,0.72-1.006,1.214-1.791,1.306L9.67,22.54l6.934,6.313
			C17.213,29.403,17.463,30.232,17.279,31.014z M35.509,45.697c-0.502,0-0.991-0.113-1.445-0.327
			c-0.078-0.032-0.154-0.069-0.233-0.114l-9.188-5.24l-9.187,5.242c-0.077,0.045-0.156,0.083-0.237,0.118
			c-1.09,0.511-2.426,0.39-3.402-0.319c-1.049-0.76-1.568-2.088-1.311-3.375l2.141-10.384c-0.837-0.761-2.153-1.958-3.583-3.259
			L4.825,24.18c-0.06-0.056-0.123-0.118-0.174-0.183c-0.838-0.886-1.139-2.17-0.761-3.338c0.388-1.171,1.388-2.04,2.595-2.256
			c0.077-0.019,0.151-0.032,0.229-0.041l10.516-1.166l4.354-9.641c0.037-0.085,0.08-0.168,0.133-0.247
			c0.587-1.058,1.71-1.724,2.928-1.724c1.216,0,2.336,0.666,2.929,1.722c0.048,0.081,0.092,0.164,0.135,0.251l4.357,9.646
			l10.516,1.166c0.075,0.006,0.151,0.02,0.233,0.038c1.204,0.224,2.204,1.086,2.59,2.264c0.38,1.165,0.077,2.456-0.761,3.342
			c-0.053,0.058-0.114,0.121-0.174,0.174l-7.825,7.123l2.14,10.36c0.253,1.313-0.263,2.636-1.318,3.398
			C36.899,45.475,36.22,45.697,35.509,45.697z"/>
	</g>
	<g id="navigator">
		<g>
			<circle fill-rule="evenodd" clip-rule="evenodd" fill="#F8AA2B" cx="24.401" cy="25.599" r="20.099"/>
			<g>
				<path fill-rule="evenodd" clip-rule="evenodd" fill="#FFFFFF" d="M24.413,26.894c-2.732,2.727-5.437,5.427-8.141,8.127
					c-0.013-0.007-0.025-0.014-0.039-0.021c2.719-6.779,5.437-13.559,8.155-20.339c0.019-0.003,0.038-0.008,0.057-0.012
					c2.708,6.787,5.417,13.573,8.126,20.36c-0.012,0.007-0.022,0.016-0.033,0.022C29.836,32.327,27.134,29.619,24.413,26.894z"/>
			</g>
		</g>
	</g>
</g>
<g id="types">
	<g id="gasoleoA" display="none">
		<path display="inline" fill="#484748" d="M24.836,31.101c-5.67,0-9.63-3.936-9.63-9.57c0-5.494,7.719-15.359,8.599-16.467
			l1.031-1.296l1.031,1.296c0.881,1.107,8.602,10.973,8.602,16.467C34.469,27.165,30.508,31.101,24.836,31.101 M24.836,8.048
			c-2.61,3.509-6.996,10.108-6.996,13.481c0,4.792,3.514,6.936,6.996,6.936c3.484,0,6.998-2.144,6.998-6.936
			C31.834,18.157,27.447,11.557,24.836,8.048"/>
		<path display="inline" fill="#484748" d="M23.93,25.738c-0.167,1.125-1.446,1.266-2.549,0.357
			c-1.675-1.375-2.491-3.165-2.468-4.32c0.007-0.367,0.35-0.691,0.783-0.765c0.124-0.021,0.245-0.021,0.358-0.002
			c0.318,0.049,0.598,0.241,0.68,0.529c0.19,0.659,0.936,1.419,1.578,1.71C23.258,23.675,24.072,24.772,23.93,25.738"/>
		<g display="inline">
			<path fill="#484748" d="M0.568,40.521v-0.02c0-1.887,1.444-3.485,3.476-3.485c1.011,0,1.685,0.241,2.301,0.684
				c0.115,0.087,0.241,0.25,0.241,0.481c0,0.317-0.26,0.588-0.587,0.588c-0.154,0-0.27-0.067-0.366-0.136
				c-0.433-0.317-0.905-0.529-1.637-0.529c-1.242,0-2.186,1.088-2.186,2.379v0.019c0,1.387,0.915,2.407,2.292,2.407
				c0.636,0,1.213-0.202,1.627-0.51v-1.262H4.4c-0.289,0-0.529-0.222-0.529-0.511c0-0.288,0.241-0.52,0.529-0.52h1.878
				c0.337,0,0.597,0.26,0.597,0.597v1.801c0,0.337-0.135,0.578-0.414,0.751c-0.578,0.385-1.386,0.731-2.397,0.731
				C1.955,43.986,0.568,42.484,0.568,40.521z"/>
			<path fill="#484748" d="M8.03,42.407v-0.019c0-1.098,0.857-1.637,2.099-1.637c0.568,0,0.973,0.086,1.367,0.211v-0.125
				c0-0.722-0.443-1.107-1.261-1.107c-0.443,0-0.809,0.077-1.126,0.203c-0.067,0.019-0.125,0.028-0.183,0.028
				c-0.27,0-0.491-0.212-0.491-0.481c0-0.212,0.144-0.395,0.317-0.462c0.481-0.183,0.973-0.299,1.637-0.299
				c0.76,0,1.329,0.202,1.685,0.568c0.375,0.366,0.549,0.905,0.549,1.569v2.503c0,0.318-0.25,0.559-0.568,0.559
				c-0.337,0-0.568-0.23-0.568-0.491v-0.192c-0.346,0.414-0.876,0.741-1.656,0.741C8.878,43.977,8.03,43.428,8.03,42.407z
				 M11.516,42.042v-0.347c-0.299-0.116-0.693-0.202-1.156-0.202c-0.751,0-1.194,0.317-1.194,0.847v0.02
				c0,0.491,0.434,0.771,0.992,0.771C10.929,43.13,11.516,42.687,11.516,42.042z"/>
			<path fill="#484748" d="M13.827,43.36c-0.125-0.067-0.221-0.211-0.221-0.404c0-0.26,0.202-0.472,0.472-0.472
				c0.096,0,0.183,0.029,0.25,0.067c0.491,0.327,1.001,0.491,1.463,0.491c0.5,0,0.79-0.212,0.79-0.549v-0.02
				c0-0.395-0.539-0.529-1.136-0.712c-0.751-0.212-1.589-0.521-1.589-1.492v-0.02c0-0.963,0.799-1.55,1.811-1.55
				c0.539,0,1.107,0.153,1.598,0.413c0.164,0.087,0.279,0.241,0.279,0.443c0,0.27-0.212,0.472-0.481,0.472
				c-0.096,0-0.154-0.02-0.231-0.058c-0.414-0.212-0.838-0.347-1.194-0.347c-0.452,0-0.712,0.212-0.712,0.501v0.019
				c0,0.376,0.549,0.53,1.146,0.723c0.741,0.23,1.579,0.568,1.579,1.482v0.02c0,1.068-0.828,1.599-1.887,1.599
				C15.118,43.968,14.415,43.766,13.827,43.36z"/>
			<path fill="#484748" d="M18.565,41.358v-0.02c0-1.454,1.155-2.657,2.715-2.657c1.56,0,2.706,1.184,2.706,2.638v0.02
				c0,1.444-1.156,2.647-2.725,2.647C19.71,43.986,18.565,42.803,18.565,41.358z M22.82,41.358v-0.02
				c0-0.896-0.645-1.637-1.56-1.637c-0.934,0-1.531,0.731-1.531,1.617v0.02c0,0.886,0.645,1.627,1.55,1.627
				C22.224,42.966,22.82,42.234,22.82,41.358z M20.953,37.988c0-0.067,0.039-0.154,0.077-0.212l0.549-0.848
				c0.106-0.173,0.26-0.279,0.462-0.279c0.308,0,0.693,0.193,0.693,0.376c0,0.105-0.067,0.202-0.164,0.289l-0.645,0.616
				c-0.231,0.212-0.414,0.26-0.684,0.26C21.078,38.19,20.953,38.113,20.953,37.988z"/>
			<path fill="#484748" d="M25.238,37.372c0-0.317,0.251-0.578,0.578-0.578c0.327,0,0.586,0.261,0.586,0.578v5.97
				c0,0.327-0.26,0.577-0.586,0.577c-0.317,0-0.578-0.25-0.578-0.577V37.372z"/>
			<path fill="#484748" d="M30.254,43.986c-1.473,0-2.609-1.068-2.609-2.638v-0.02c0-1.454,1.031-2.647,2.484-2.647
				c1.617,0,2.418,1.328,2.418,2.503c0,0.327-0.252,0.559-0.549,0.559h-3.188c0.125,0.828,0.713,1.29,1.463,1.29
				c0.492,0,0.877-0.173,1.203-0.442c0.088-0.067,0.164-0.106,0.299-0.106c0.26,0,0.463,0.202,0.463,0.472
				c0,0.145-0.068,0.27-0.154,0.356C31.621,43.727,31.045,43.986,30.254,43.986z M31.41,40.973c-0.076-0.751-0.52-1.338-1.291-1.338
				c-0.711,0-1.213,0.549-1.318,1.338H31.41z"/>
			<path fill="#484748" d="M33.461,41.358v-0.02c0-1.454,1.156-2.657,2.715-2.657c1.561,0,2.705,1.184,2.705,2.638v0.02
				c0,1.444-1.154,2.647-2.725,2.647C34.607,43.986,33.461,42.803,33.461,41.358z M37.717,41.358v-0.02
				c0-0.896-0.645-1.637-1.561-1.637c-0.934,0-1.531,0.731-1.531,1.617v0.02c0,0.886,0.646,1.627,1.551,1.627
				C37.119,42.966,37.717,42.234,37.717,41.358z"/>
			<path fill="#484748" d="M42.705,43.101l2.502-5.584c0.135-0.299,0.377-0.481,0.713-0.481h0.059c0.336,0,0.568,0.183,0.703,0.481
				l2.502,5.584c0.049,0.087,0.068,0.174,0.068,0.251c0,0.317-0.24,0.567-0.559,0.567c-0.279,0-0.473-0.163-0.578-0.414
				l-0.549-1.261h-3.273l-0.568,1.3c-0.096,0.24-0.299,0.375-0.549,0.375c-0.307,0-0.549-0.24-0.549-0.549
				C42.627,43.284,42.656,43.197,42.705,43.101z M47.115,41.194L45.93,38.47l-1.184,2.725H47.115z"/>
		</g>
	</g>
	<g id="gasoleo_x2B_" display="none">
		<g display="inline">
			<path fill="#484748" d="M1.565,40.723v-0.019c0-1.879,1.438-3.47,3.459-3.47c1.006,0,1.677,0.24,2.29,0.681
				c0.115,0.087,0.239,0.249,0.239,0.479c0,0.316-0.258,0.584-0.584,0.584c-0.153,0-0.268-0.066-0.364-0.134
				c-0.432-0.316-0.901-0.527-1.629-0.527c-1.236,0-2.175,1.083-2.175,2.367v0.02c0,1.38,0.911,2.396,2.281,2.396
				c0.632,0,1.208-0.201,1.62-0.508v-1.256H5.379c-0.288,0-0.527-0.22-0.527-0.508c0-0.287,0.24-0.518,0.527-0.518h1.868
				c0.335,0,0.594,0.259,0.594,0.595v1.792c0,0.335-0.134,0.574-0.412,0.747c-0.575,0.384-1.38,0.729-2.386,0.729
				C2.945,44.173,1.565,42.678,1.565,40.723z"/>
			<path fill="#484748" d="M9.003,42.602v-0.02c0-1.093,0.853-1.629,2.089-1.629c0.565,0,0.968,0.086,1.361,0.211v-0.125
				c0-0.719-0.441-1.102-1.255-1.102c-0.441,0-0.805,0.076-1.121,0.201c-0.067,0.019-0.125,0.028-0.182,0.028
				c-0.269,0-0.489-0.211-0.489-0.479c0-0.21,0.144-0.393,0.316-0.459c0.479-0.183,0.968-0.298,1.629-0.298
				c0.757,0,1.322,0.201,1.677,0.565c0.374,0.364,0.546,0.901,0.546,1.563v2.491c0,0.316-0.25,0.556-0.565,0.556
				c-0.335,0-0.565-0.229-0.565-0.488v-0.192c-0.345,0.412-0.872,0.738-1.648,0.738C9.847,44.163,9.003,43.617,9.003,42.602z
				 M12.472,42.237v-0.346c-0.297-0.114-0.69-0.201-1.15-0.201c-0.748,0-1.188,0.316-1.188,0.844v0.019
				c0,0.489,0.431,0.767,0.987,0.767C11.888,43.319,12.472,42.879,12.472,42.237z"/>
			<path fill="#484748" d="M14.773,43.55c-0.125-0.067-0.22-0.211-0.22-0.402c0-0.259,0.201-0.47,0.469-0.47
				c0.096,0,0.182,0.028,0.249,0.067c0.489,0.325,0.997,0.488,1.457,0.488c0.498,0,0.786-0.211,0.786-0.546v-0.02
				c0-0.393-0.537-0.527-1.131-0.709c-0.748-0.211-1.581-0.518-1.581-1.485v-0.019c0-0.959,0.795-1.543,1.801-1.543
				c0.537,0,1.102,0.153,1.591,0.412c0.163,0.086,0.278,0.239,0.278,0.44c0,0.269-0.21,0.47-0.479,0.47
				c-0.096,0-0.153-0.02-0.23-0.058c-0.412-0.211-0.833-0.345-1.188-0.345c-0.451,0-0.709,0.211-0.709,0.498v0.02
				c0,0.373,0.546,0.526,1.141,0.719c0.738,0.229,1.571,0.564,1.571,1.476v0.019c0,1.063-0.824,1.591-1.878,1.591
				C16.057,44.153,15.357,43.952,14.773,43.55z"/>
			<path fill="#484748" d="M19.488,41.557v-0.02c0-1.446,1.15-2.645,2.703-2.645c1.552,0,2.692,1.179,2.692,2.626v0.019
				c0,1.438-1.15,2.636-2.712,2.636C20.629,44.173,19.488,42.994,19.488,41.557z M23.724,41.557v-0.02
				c0-0.891-0.642-1.629-1.553-1.629c-0.929,0-1.523,0.729-1.523,1.61v0.019c0,0.882,0.642,1.62,1.543,1.62
				C23.13,43.157,23.724,42.429,23.724,41.557z M21.865,38.203c0-0.067,0.039-0.153,0.077-0.211l0.546-0.844
				c0.105-0.172,0.259-0.277,0.46-0.277c0.307,0,0.69,0.191,0.69,0.373c0,0.105-0.067,0.201-0.163,0.288l-0.642,0.613
				c-0.229,0.211-0.412,0.259-0.68,0.259C21.99,38.404,21.865,38.327,21.865,38.203z"/>
			<path fill="#484748" d="M26.131,37.59c0-0.316,0.249-0.575,0.574-0.575c0.326,0,0.585,0.259,0.585,0.575v5.94
				c0,0.326-0.259,0.575-0.585,0.575c-0.315,0-0.574-0.249-0.574-0.575V37.59z"/>
			<path fill="#484748" d="M31.123,44.173c-1.466,0-2.597-1.063-2.597-2.626v-0.02c0-1.446,1.025-2.635,2.473-2.635
				c1.609,0,2.405,1.322,2.405,2.491c0,0.326-0.249,0.556-0.547,0.556h-3.172c0.125,0.824,0.71,1.284,1.457,1.284
				c0.488,0,0.872-0.172,1.198-0.44c0.086-0.067,0.162-0.105,0.297-0.105c0.259,0,0.46,0.201,0.46,0.47
				c0,0.144-0.067,0.269-0.153,0.354C32.484,43.914,31.909,44.173,31.123,44.173z M32.273,41.173
				c-0.077-0.747-0.518-1.331-1.284-1.331c-0.709,0-1.207,0.546-1.313,1.331H32.273z"/>
			<path fill="#484748" d="M34.315,41.557v-0.02c0-1.446,1.15-2.645,2.702-2.645c1.553,0,2.693,1.179,2.693,2.626v0.019
				c0,1.438-1.15,2.636-2.712,2.636C35.456,44.173,34.315,42.994,34.315,41.557z M38.551,41.557v-0.02
				c0-0.891-0.642-1.629-1.552-1.629c-0.93,0-1.524,0.729-1.524,1.61v0.019c0,0.882,0.643,1.62,1.543,1.62
				C37.957,43.157,38.551,42.429,38.551,41.557z"/>
			<path fill="#484748" d="M45.528,41.212h-1.36c-0.287,0-0.527-0.23-0.527-0.527c0-0.287,0.24-0.527,0.527-0.527h1.36v-1.332
				c0-0.307,0.24-0.546,0.547-0.546c0.297,0,0.546,0.239,0.546,0.546v1.332h1.36c0.288,0,0.527,0.24,0.527,0.527
				c0,0.297-0.239,0.527-0.527,0.527h-1.36v1.332c0,0.307-0.249,0.546-0.546,0.546c-0.307,0-0.547-0.239-0.547-0.546V41.212z"/>
		</g>
		<path display="inline" fill="#484748" d="M25.057,31.401c-5.644,0-9.587-3.918-9.587-9.528c0-5.47,7.686-15.291,8.562-16.394
			l1.025-1.291l1.027,1.291c0.875,1.102,8.561,10.924,8.561,16.394C34.645,27.483,30.703,31.401,25.057,31.401 M25.057,8.451
			c-2.597,3.494-6.964,10.063-6.964,13.422c0,4.769,3.498,6.905,6.964,6.905c3.469,0,6.967-2.136,6.967-6.905
			C32.023,18.514,27.658,11.945,25.057,8.451"/>
		<path display="inline" fill="#484748" d="M22.601,23.676h-1.643c-0.531,0-0.961-0.431-0.961-0.961c0-0.528,0.431-0.96,0.961-0.96
			h1.643v-1.602c0-0.543,0.445-0.989,0.989-0.989c0.543,0,0.989,0.446,0.989,0.989v1.602h1.644c0.529,0,0.961,0.432,0.961,0.96
			c0,0.53-0.432,0.961-0.961,0.961h-1.644v1.602c0,0.543-0.446,0.989-0.989,0.989c-0.544,0-0.989-0.446-0.989-0.989V23.676z"/>
	</g>
	<g id="_x39_5" display="none">
		<g display="inline">
			<path fill="#484748" d="M0.709,43.836c-0.138-0.099-0.236-0.267-0.236-0.464c0-0.315,0.256-0.562,0.572-0.562
				c0.167,0,0.276,0.049,0.355,0.108c0.571,0.453,1.183,0.71,1.932,0.71c0.75,0,1.223-0.355,1.223-0.868v-0.02
				c0-0.492-0.276-0.759-1.558-1.055c-1.469-0.354-2.297-0.788-2.297-2.06v-0.021c0-1.183,0.986-2.001,2.356-2.001
				c0.868,0,1.567,0.228,2.188,0.642c0.138,0.078,0.266,0.246,0.266,0.482c0,0.315-0.256,0.562-0.572,0.562
				c-0.118,0-0.217-0.029-0.315-0.088c-0.532-0.346-1.045-0.522-1.587-0.522c-0.71,0-1.124,0.364-1.124,0.817v0.021
				c0,0.532,0.315,0.769,1.646,1.084c1.458,0.354,2.208,0.877,2.208,2.021v0.02c0,1.292-1.016,2.061-2.464,2.061
				C2.365,44.703,1.478,44.407,0.709,43.836z"/>
			<path fill="#484748" d="M7.038,38c0-0.354,0.295-0.581,0.68-0.581c0.384,0,0.68,0.227,0.68,0.581v0.06
				c0,0.354-0.296,0.591-0.68,0.591c-0.385,0-0.68-0.236-0.68-0.591V38z M7.126,39.942c0-0.336,0.256-0.602,0.591-0.602
				c0.335,0,0.601,0.266,0.601,0.602v4.12c0,0.335-0.266,0.591-0.601,0.591c-0.325,0-0.591-0.256-0.591-0.591V39.942z"/>
			<path fill="#484748" d="M9.876,39.942c0-0.336,0.256-0.602,0.591-0.602c0.335,0,0.602,0.266,0.602,0.602v0.256
				c0.335-0.483,0.818-0.907,1.626-0.907c1.173,0,1.853,0.789,1.853,1.991v2.78c0,0.335-0.256,0.591-0.591,0.591
				c-0.335,0-0.602-0.256-0.602-0.591v-2.415c0-0.809-0.404-1.271-1.114-1.271c-0.69,0-1.173,0.482-1.173,1.291v2.396
				c0,0.335-0.266,0.591-0.602,0.591c-0.325,0-0.591-0.256-0.591-0.591V39.942z"/>
			<path fill="#484748" d="M19.083,38.315c0-0.345,0.266-0.611,0.611-0.611h2.11c1.616,0,2.622,0.917,2.622,2.307v0.021
				c0,1.547-1.242,2.355-2.76,2.355h-1.37v1.666c0,0.335-0.266,0.601-0.602,0.601c-0.345,0-0.611-0.266-0.611-0.601V38.315z
				 M21.706,41.293c0.917,0,1.488-0.513,1.488-1.232v-0.02c0-0.809-0.582-1.232-1.488-1.232h-1.41v2.484H21.706z"/>
			<path fill="#484748" d="M25.599,37.951c0-0.325,0.256-0.592,0.591-0.592c0.335,0,0.602,0.267,0.602,0.592v6.111
				c0,0.335-0.267,0.591-0.602,0.591c-0.325,0-0.591-0.256-0.591-0.591V37.951z"/>
			<path fill="#484748" d="M28.063,42.032v-0.021c0-1.488,1.184-2.721,2.78-2.721s2.77,1.213,2.77,2.701v0.02
				c0,1.479-1.183,2.711-2.789,2.711C29.236,44.723,28.063,43.511,28.063,42.032z M32.42,42.032v-0.021
				c0-0.916-0.66-1.676-1.597-1.676c-0.956,0-1.567,0.75-1.567,1.656v0.02c0,0.907,0.66,1.666,1.587,1.666
				C31.809,43.678,32.42,42.929,32.42,42.032z"/>
			<path fill="#484748" d="M34.825,39.942c0-0.336,0.257-0.602,0.592-0.602s0.601,0.266,0.601,0.602v0.246
				c0.336-0.463,0.789-0.897,1.588-0.897c0.749,0,1.281,0.365,1.557,0.917c0.414-0.552,0.967-0.917,1.755-0.917
				c1.134,0,1.823,0.72,1.823,1.991v2.78c0,0.335-0.256,0.591-0.591,0.591s-0.602-0.256-0.602-0.591v-2.415
				c0-0.828-0.385-1.271-1.055-1.271c-0.65,0-1.114,0.453-1.114,1.291v2.396c0,0.335-0.266,0.591-0.591,0.591
				c-0.335,0-0.602-0.256-0.602-0.591v-2.425c0-0.809-0.395-1.262-1.055-1.262s-1.114,0.492-1.114,1.291v2.396
				c0,0.335-0.266,0.591-0.601,0.591c-0.325,0-0.592-0.256-0.592-0.591V39.942z"/>
			<path fill="#484748" d="M43.903,42.032v-0.021c0-1.488,1.184-2.721,2.78-2.721s2.77,1.213,2.77,2.701v0.02
				c0,1.479-1.183,2.711-2.789,2.711C45.077,44.723,43.903,43.511,43.903,42.032z M48.261,42.032v-0.021
				c0-0.916-0.66-1.676-1.597-1.676c-0.956,0-1.567,0.75-1.567,1.656v0.02c0,0.907,0.66,1.666,1.587,1.666
				C47.649,43.678,48.261,42.929,48.261,42.032z"/>
		</g>
		<path display="inline" fill="#484748" d="M8.143,25.263C7.6,24.911,7.251,24.37,7.251,23.636c0-1.021,0.828-1.787,1.849-1.787
			c0.415,0,0.766,0.128,1.084,0.318c1.308,0.924,2.552,1.373,4.083,1.373c3.287,0,5.266-2.904,5.392-7.02
			c-1.115,1.339-2.839,2.362-5.231,2.362c-4.753,0-7.912-2.776-7.912-7.083v-0.064c0-4.371,3.382-7.721,8.327-7.721
			c2.808,0,4.626,0.798,6.222,2.36c1.627,1.659,2.679,4.116,2.679,8.519v0.064c0,7.178-3.542,12.155-9.57,12.155
			C11.653,27.113,9.802,26.38,8.143,25.263 M19.534,11.575v-0.063c0-2.329-1.818-4.116-4.657-4.116
			c-2.778,0-4.436,1.851-4.436,4.147v0.063c0,2.33,1.786,3.989,4.563,3.989C17.842,15.596,19.534,13.746,19.534,11.575"/>
		<path display="inline" fill="#484748" d="M28.081,24.689c-0.478-0.383-0.798-0.894-0.798-1.531c0-1.021,0.862-1.884,1.884-1.884
			c0.479,0,0.828,0.127,1.148,0.384c1.528,1.244,3.094,1.882,4.849,1.882c2.521,0,4.34-1.5,4.34-3.861v-0.064
			c0-2.296-1.915-3.7-4.627-3.7c-2.17,0-3.223,0.765-3.83,0.765c-0.604,0-1.084-0.222-1.851-0.765
			c-0.573-0.415-0.796-0.989-0.765-1.723l0.479-8.039c0.063-1.021,0.829-1.755,1.786-1.755h10.115c0.957,0,1.755,0.798,1.755,1.755
			s-0.798,1.722-1.755,1.722H32.42l-0.351,5.233c1.054-0.383,2.043-0.639,3.542-0.639c4.37,0,7.784,2.298,7.784,7.019v0.064
			c0,4.531-3.383,7.561-8.169,7.561C32.197,27.113,29.899,26.092,28.081,24.689"/>
	</g>
	<g id="_x39_8" display="none">
		<g display="inline">
			<path fill="#484748" d="M0.496,43.532c-0.139-0.1-0.238-0.268-0.238-0.467c0-0.317,0.258-0.564,0.575-0.564
				c0.168,0,0.278,0.049,0.357,0.108c0.575,0.456,1.19,0.715,1.944,0.715c0.753,0,1.229-0.357,1.229-0.873v-0.021
				c0-0.495-0.277-0.764-1.567-1.061c-1.478-0.357-2.311-0.794-2.311-2.073v-0.02c0-1.19,0.992-2.014,2.371-2.014
				c0.873,0,1.577,0.229,2.202,0.645c0.139,0.079,0.268,0.248,0.268,0.486c0,0.317-0.258,0.565-0.575,0.565
				c-0.119,0-0.218-0.03-0.317-0.09c-0.536-0.347-1.052-0.525-1.597-0.525c-0.714,0-1.13,0.367-1.13,0.823v0.02
				c0,0.536,0.317,0.774,1.656,1.092c1.468,0.356,2.222,0.882,2.222,2.033v0.02c0,1.299-1.021,2.073-2.479,2.073
				C2.163,44.405,1.27,44.107,0.496,43.532z"/>
			<path fill="#484748" d="M6.859,37.66c0-0.356,0.297-0.585,0.685-0.585c0.387,0,0.684,0.229,0.684,0.585v0.06
				c0,0.357-0.297,0.596-0.684,0.596c-0.387,0-0.685-0.238-0.685-0.596V37.66z M6.948,39.614c0-0.337,0.258-0.604,0.595-0.604
				c0.337,0,0.605,0.268,0.605,0.604v4.146c0,0.338-0.268,0.596-0.605,0.596c-0.328,0-0.595-0.258-0.595-0.596V39.614z"/>
			<path fill="#484748" d="M9.713,39.614c0-0.337,0.258-0.604,0.595-0.604c0.337,0,0.605,0.268,0.605,0.604v0.258
				c0.337-0.486,0.823-0.912,1.636-0.912c1.18,0,1.865,0.793,1.865,2.003v2.797c0,0.338-0.258,0.596-0.595,0.596
				c-0.337,0-0.605-0.258-0.605-0.596v-2.43c0-0.813-0.407-1.279-1.121-1.279c-0.694,0-1.18,0.486-1.18,1.299v2.41
				c0,0.338-0.268,0.596-0.605,0.596c-0.328,0-0.595-0.258-0.595-0.596V39.614z"/>
			<path fill="#484748" d="M18.97,37.978c0-0.347,0.268-0.614,0.615-0.614h2.122c1.627,0,2.639,0.922,2.639,2.32v0.021
				c0,1.557-1.25,2.37-2.777,2.37H20.19v1.676c0,0.338-0.268,0.605-0.605,0.605c-0.347,0-0.615-0.268-0.615-0.605V37.978z
				 M21.608,40.974c0.922,0,1.498-0.517,1.498-1.24v-0.02c0-0.813-0.585-1.24-1.498-1.24H20.19v2.5H21.608z"/>
			<path fill="#484748" d="M25.521,37.611c0-0.328,0.258-0.596,0.595-0.596c0.337,0,0.604,0.268,0.604,0.596v6.148
				c0,0.338-0.268,0.596-0.604,0.596c-0.327,0-0.595-0.258-0.595-0.596V37.611z"/>
			<path fill="#484748" d="M27.998,41.717v-0.02c0-1.498,1.19-2.737,2.797-2.737c1.607,0,2.787,1.22,2.787,2.718v0.02
				c0,1.487-1.189,2.728-2.807,2.728C29.179,44.425,27.998,43.205,27.998,41.717z M32.382,41.717v-0.02
				c0-0.923-0.664-1.687-1.606-1.687c-0.962,0-1.577,0.754-1.577,1.667v0.02c0,0.912,0.665,1.676,1.597,1.676
				C31.768,43.373,32.382,42.619,32.382,41.717z"/>
			<path fill="#484748" d="M34.798,39.614c0-0.337,0.258-0.604,0.595-0.604c0.338,0,0.605,0.268,0.605,0.604v0.248
				c0.337-0.466,0.793-0.902,1.597-0.902c0.754,0,1.289,0.367,1.567,0.922c0.416-0.555,0.972-0.922,1.765-0.922
				c1.141,0,1.835,0.724,1.835,2.003v2.797c0,0.338-0.258,0.596-0.595,0.596s-0.605-0.258-0.605-0.596v-2.43
				c0-0.833-0.387-1.279-1.061-1.279c-0.655,0-1.121,0.456-1.121,1.299v2.41c0,0.338-0.268,0.596-0.595,0.596
				c-0.338,0-0.605-0.258-0.605-0.596V41.32c0-0.813-0.396-1.27-1.062-1.27c-0.664,0-1.12,0.496-1.12,1.299v2.41
				c0,0.338-0.268,0.596-0.605,0.596c-0.327,0-0.595-0.258-0.595-0.596V39.614z"/>
			<path fill="#484748" d="M43.925,41.717v-0.02c0-1.498,1.19-2.737,2.797-2.737c1.607,0,2.787,1.22,2.787,2.718v0.02
				c0,1.487-1.189,2.728-2.807,2.728C45.105,44.425,43.925,43.205,43.925,41.717z M48.309,41.717v-0.02
				c0-0.923-0.664-1.687-1.606-1.687c-0.962,0-1.577,0.754-1.577,1.667v0.02c0,0.912,0.665,1.676,1.597,1.676
				C47.694,43.373,48.309,42.619,48.309,41.717z"/>
		</g>
		<path display="inline" fill="#484748" d="M7.969,25.569c-0.543-0.351-0.894-0.893-0.894-1.629c0-1.023,0.83-1.792,1.854-1.792
			c0.415,0,0.768,0.128,1.086,0.32c1.312,0.928,2.56,1.375,4.094,1.375c3.294,0,5.277-2.911,5.404-7.036
			c-1.118,1.344-2.845,2.366-5.244,2.366c-4.765,0-7.932-2.782-7.932-7.099v-0.064c0-4.381,3.39-7.739,8.347-7.739
			c2.814,0,4.638,0.799,6.236,2.366c1.631,1.663,2.685,4.126,2.685,8.54v0.063c0,7.196-3.548,12.186-9.592,12.186
			C11.488,27.427,9.632,26.69,7.969,25.569 M19.387,11.851v-0.063c0-2.334-1.823-4.125-4.668-4.125
			c-2.785,0-4.446,1.854-4.446,4.157v0.063c0,2.335,1.79,3.999,4.573,3.999C17.692,15.882,19.387,14.027,19.387,11.851"/>
		<path display="inline" fill="#484748" d="M26.963,20.934V20.87c0-2.686,1.501-4.382,4.028-5.437
			c-1.887-0.991-3.261-2.494-3.261-4.989v-0.064c0-3.421,3.292-6.044,7.769-6.044c4.479,0,7.771,2.59,7.771,6.044v0.064
			c0,2.495-1.372,3.998-3.261,4.989c2.463,1.12,4.029,2.719,4.029,5.372v0.064c0,3.998-3.645,6.492-8.54,6.492
			C30.607,27.362,26.963,24.804,26.963,20.934 M40.2,20.711v-0.064c0-2.047-2.046-3.391-4.701-3.391
			c-2.652,0-4.668,1.344-4.668,3.391v0.064c0,1.821,1.728,3.356,4.668,3.356C38.442,24.067,40.2,22.564,40.2,20.711 M39.499,10.828
			v-0.063c0-1.727-1.601-3.134-4-3.134c-2.396,0-3.995,1.408-3.995,3.102v0.064c0,1.951,1.694,3.326,3.995,3.326
			C37.804,14.123,39.499,12.747,39.499,10.828"/>
	</g>
	<g id="gasoleoA_x5F_new" display="none">
		<path display="inline" fill="#484748" d="M24.449,24.611c-4.31,0-7.32-2.993-7.32-7.275c0-4.176,5.868-11.676,6.538-12.518
			l0.783-0.985l0.785,0.985c0.669,0.842,6.538,8.342,6.538,12.518C31.771,21.619,28.762,24.611,24.449,24.611 M24.449,7.086
			c-1.984,2.668-5.319,7.684-5.319,10.249c0,3.643,2.671,5.273,5.319,5.273c2.648,0,5.318-1.63,5.318-5.273
			C29.768,14.771,26.436,9.755,24.449,7.086"/>
		<path display="inline" fill="#484748" d="M23.759,20.534c-0.126,0.856-1.099,0.964-1.937,0.273
			c-1.274-1.046-1.894-2.407-1.877-3.285c0.006-0.279,0.266-0.525,0.596-0.581c0.093-0.016,0.185-0.016,0.272-0.002
			c0.242,0.037,0.454,0.184,0.517,0.402c0.145,0.502,0.712,1.08,1.199,1.3C23.25,18.966,23.866,19.801,23.759,20.534"/>
		<g display="inline">
			<path fill="#484748" d="M10.229,27.993c0-0.327,0.26-0.597,0.597-0.597h0.125c0.289,0,0.452,0.145,0.616,0.347l3.37,4.361v-4.14
				c0-0.318,0.26-0.578,0.578-0.578c0.328,0,0.587,0.26,0.587,0.578v5.661c0,0.327-0.25,0.587-0.578,0.587h-0.048
				c-0.279,0-0.452-0.144-0.616-0.355l-3.466-4.487v4.275c0,0.317-0.26,0.577-0.578,0.577c-0.328,0-0.587-0.26-0.587-0.577V27.993z"
				/>
			<path fill="#484748" d="M22.211,33.646c0,0.317-0.26,0.577-0.587,0.577c-0.318,0-0.587-0.25-0.587-0.577v-0.26
				c-0.327,0.481-0.799,0.895-1.589,0.895c-1.146,0-1.81-0.77-1.81-1.954v-2.705c0-0.328,0.26-0.588,0.578-0.588
				c0.328,0,0.587,0.26,0.587,0.588v2.358c0,0.79,0.395,1.232,1.088,1.232c0.674,0,1.146-0.462,1.146-1.252v-2.339
				c0-0.328,0.26-0.588,0.587-0.588c0.318,0,0.587,0.26,0.587,0.588V33.646z"/>
			<path fill="#484748" d="M25.991,34.29c-1.473,0-2.609-1.068-2.609-2.638v-0.02c0-1.454,1.03-2.647,2.484-2.647
				c1.617,0,2.417,1.328,2.417,2.503c0,0.327-0.252,0.559-0.549,0.559h-3.188c0.125,0.828,0.712,1.29,1.463,1.29
				c0.492,0,0.877-0.173,1.203-0.442c0.088-0.067,0.164-0.106,0.299-0.106c0.26,0,0.463,0.202,0.463,0.472
				c0,0.145-0.068,0.27-0.154,0.356C27.357,34.03,26.781,34.29,25.991,34.29z M27.146,31.276c-0.076-0.751-0.52-1.338-1.291-1.338
				c-0.712,0-1.213,0.549-1.319,1.338H27.146z"/>
			<path fill="#484748" d="M31.389,34.271H31.33c-0.316,0-0.529-0.202-0.664-0.511l-1.693-3.88
				c-0.029-0.087-0.068-0.184-0.068-0.289c0-0.289,0.26-0.559,0.578-0.559s0.48,0.183,0.578,0.424l1.309,3.37l1.328-3.39
				c0.088-0.202,0.242-0.404,0.549-0.404c0.318,0,0.568,0.241,0.568,0.559c0,0.105-0.039,0.222-0.066,0.279l-1.695,3.89
				C31.918,34.06,31.707,34.271,31.389,34.271z"/>
			<path fill="#484748" d="M34.428,31.662v-0.02c0-1.454,1.156-2.657,2.715-2.657c1.561,0,2.705,1.185,2.705,2.638v0.02
				c0,1.444-1.154,2.647-2.725,2.647C35.574,34.29,34.428,33.106,34.428,31.662z M38.684,31.662v-0.02
				c0-0.896-0.645-1.637-1.561-1.637c-0.934,0-1.531,0.731-1.531,1.617v0.02c0,0.886,0.646,1.627,1.551,1.627
				C38.086,33.27,38.684,32.538,38.684,31.662z"/>
		</g>
		<g display="inline">
			<path fill="#484748" d="M0.568,40.445v-0.02c0-1.887,1.444-3.485,3.476-3.485c1.011,0,1.685,0.241,2.301,0.684
				c0.115,0.087,0.241,0.25,0.241,0.481c0,0.317-0.26,0.588-0.587,0.588c-0.154,0-0.27-0.067-0.366-0.135
				c-0.433-0.318-0.905-0.53-1.637-0.53c-1.242,0-2.186,1.088-2.186,2.378v0.02c0,1.387,0.915,2.407,2.292,2.407
				c0.636,0,1.213-0.202,1.627-0.51v-1.262H4.4c-0.289,0-0.529-0.222-0.529-0.511c0-0.288,0.241-0.52,0.529-0.52h1.878
				c0.337,0,0.597,0.26,0.597,0.597v1.801c0,0.337-0.135,0.578-0.414,0.751c-0.578,0.385-1.386,0.731-2.397,0.731
				C1.955,43.911,0.568,42.409,0.568,40.445z"/>
			<path fill="#484748" d="M8.024,42.332v-0.019c0-1.098,0.857-1.637,2.099-1.637c0.568,0,0.973,0.086,1.367,0.211v-0.125
				c0-0.722-0.443-1.107-1.261-1.107c-0.443,0-0.809,0.077-1.126,0.203c-0.067,0.019-0.125,0.028-0.183,0.028
				c-0.27,0-0.491-0.212-0.491-0.481c0-0.212,0.144-0.395,0.317-0.462c0.481-0.183,0.973-0.299,1.637-0.299
				c0.76,0,1.329,0.202,1.685,0.568c0.375,0.366,0.549,0.905,0.549,1.569v2.503c0,0.318-0.25,0.559-0.568,0.559
				c-0.337,0-0.568-0.23-0.568-0.491V43.16c-0.346,0.414-0.876,0.741-1.656,0.741C8.872,43.901,8.024,43.353,8.024,42.332z
				 M11.51,41.967V41.62c-0.299-0.116-0.693-0.202-1.156-0.202c-0.751,0-1.194,0.317-1.194,0.847v0.02
				c0,0.491,0.434,0.771,0.992,0.771C10.923,43.055,11.51,42.611,11.51,41.967z"/>
			<path fill="#484748" d="M13.817,43.285c-0.125-0.067-0.221-0.211-0.221-0.404c0-0.26,0.202-0.472,0.472-0.472
				c0.096,0,0.183,0.029,0.25,0.067c0.491,0.327,1.001,0.491,1.463,0.491c0.5,0,0.79-0.212,0.79-0.549v-0.02
				c0-0.395-0.539-0.529-1.136-0.712c-0.751-0.212-1.589-0.521-1.589-1.492v-0.02c0-0.963,0.799-1.55,1.811-1.55
				c0.539,0,1.107,0.153,1.598,0.413c0.164,0.087,0.279,0.241,0.279,0.443c0,0.27-0.212,0.472-0.481,0.472
				c-0.096,0-0.154-0.02-0.231-0.058c-0.414-0.212-0.837-0.347-1.194-0.347c-0.452,0-0.712,0.212-0.712,0.501v0.019
				c0,0.376,0.549,0.53,1.146,0.723c0.741,0.231,1.579,0.568,1.579,1.482v0.02c0,1.068-0.828,1.599-1.887,1.599
				C15.107,43.893,14.404,43.69,13.817,43.285z"/>
			<path fill="#484748" d="M18.551,41.283v-0.02c0-1.454,1.155-2.657,2.715-2.657c1.56,0,2.706,1.185,2.706,2.638v0.02
				c0,1.444-1.155,2.647-2.725,2.647C19.696,43.911,18.551,42.728,18.551,41.283z M22.806,41.283v-0.02
				c0-0.896-0.645-1.637-1.56-1.637c-0.934,0-1.531,0.731-1.531,1.617v0.02c0,0.886,0.645,1.627,1.55,1.627
				C22.209,42.891,22.806,42.159,22.806,41.283z M20.938,37.913c0-0.067,0.039-0.154,0.077-0.212l0.549-0.848
				c0.106-0.173,0.26-0.279,0.462-0.279c0.308,0,0.693,0.193,0.693,0.376c0,0.105-0.067,0.202-0.164,0.289l-0.645,0.616
				c-0.231,0.212-0.414,0.26-0.684,0.26C21.063,38.115,20.938,38.038,20.938,37.913z"/>
			<path fill="#484748" d="M25.219,37.297c0-0.317,0.25-0.578,0.578-0.578c0.328,0,0.588,0.261,0.588,0.578v5.97
				c0,0.327-0.26,0.577-0.588,0.577c-0.318,0-0.578-0.25-0.578-0.577V37.297z"/>
			<path fill="#484748" d="M30.232,43.911c-1.473,0-2.609-1.068-2.609-2.638v-0.02c0-1.454,1.031-2.647,2.484-2.647
				c1.617,0,2.418,1.328,2.418,2.503c0,0.327-0.252,0.559-0.549,0.559h-3.188c0.125,0.828,0.713,1.29,1.463,1.29
				c0.492,0,0.877-0.173,1.203-0.442c0.088-0.067,0.164-0.106,0.299-0.106c0.26,0,0.463,0.202,0.463,0.472
				c0,0.145-0.068,0.27-0.154,0.356C31.6,43.651,31.023,43.911,30.232,43.911z M31.389,40.897c-0.076-0.751-0.52-1.338-1.291-1.338
				c-0.711,0-1.213,0.549-1.318,1.338H31.389z"/>
			<path fill="#484748" d="M33.436,41.283v-0.02c0-1.454,1.156-2.657,2.715-2.657c1.561,0,2.705,1.185,2.705,2.638v0.02
				c0,1.444-1.154,2.647-2.725,2.647C34.582,43.911,33.436,42.728,33.436,41.283z M37.691,41.283v-0.02
				c0-0.896-0.645-1.637-1.561-1.637c-0.934,0-1.531,0.731-1.531,1.617v0.02c0,0.886,0.646,1.627,1.551,1.627
				C37.094,42.891,37.691,42.159,37.691,41.283z"/>
			<path fill="#484748" d="M42.672,43.025l2.504-5.584c0.135-0.299,0.375-0.481,0.713-0.481h0.057c0.338,0,0.568,0.183,0.703,0.481
				l2.504,5.584c0.049,0.087,0.066,0.174,0.066,0.251c0,0.317-0.24,0.567-0.559,0.567c-0.277,0-0.471-0.163-0.576-0.414
				l-0.549-1.261h-3.273l-0.568,1.3c-0.098,0.24-0.299,0.375-0.549,0.375c-0.309,0-0.549-0.24-0.549-0.549
				C42.596,43.209,42.625,43.122,42.672,43.025z M47.082,41.119l-1.184-2.725l-1.186,2.725H47.082z"/>
		</g>
	</g>
	<g id="gasoleoC" display="none">
		<g display="inline">
			<path fill="#484748" d="M0.795,40.547v-0.02c0-1.865,1.429-3.446,3.438-3.446c1,0,1.666,0.238,2.275,0.676
				c0.114,0.086,0.238,0.248,0.238,0.477c0,0.313-0.257,0.581-0.581,0.581c-0.152,0-0.267-0.067-0.361-0.134
				c-0.429-0.314-0.896-0.523-1.619-0.523c-1.228,0-2.161,1.075-2.161,2.352v0.019c0,1.371,0.904,2.381,2.266,2.381
				c0.628,0,1.2-0.2,1.609-0.505v-1.247H4.585c-0.286,0-0.524-0.219-0.524-0.505c0-0.285,0.238-0.514,0.524-0.514h1.856
				c0.333,0,0.59,0.257,0.59,0.59v1.78c0,0.334-0.133,0.572-0.41,0.743c-0.571,0.381-1.371,0.724-2.371,0.724
				C2.166,43.975,0.795,42.489,0.795,40.547z"/>
			<path fill="#484748" d="M8.179,42.413v-0.019c0-1.086,0.847-1.619,2.075-1.619c0.562,0,0.962,0.086,1.353,0.209v-0.123
				c0-0.715-0.438-1.096-1.248-1.096c-0.438,0-0.8,0.076-1.114,0.2c-0.067,0.02-0.124,0.028-0.181,0.028
				c-0.267,0-0.486-0.209-0.486-0.476c0-0.21,0.143-0.391,0.314-0.457c0.476-0.181,0.962-0.295,1.619-0.295
				c0.752,0,1.314,0.2,1.667,0.562c0.371,0.361,0.542,0.895,0.542,1.552v2.476c0,0.314-0.248,0.553-0.562,0.553
				c-0.333,0-0.562-0.229-0.562-0.486v-0.189c-0.343,0.409-0.866,0.732-1.638,0.732C9.017,43.965,8.179,43.422,8.179,42.413z
				 M11.625,42.051v-0.342c-0.295-0.115-0.686-0.2-1.143-0.2c-0.742,0-1.181,0.313-1.181,0.838v0.019
				c0,0.486,0.429,0.762,0.981,0.762C11.044,43.127,11.625,42.689,11.625,42.051z"/>
			<path fill="#484748" d="M13.914,43.355c-0.124-0.066-0.219-0.209-0.219-0.399c0-0.257,0.2-0.467,0.467-0.467
				c0.095,0,0.181,0.028,0.248,0.066c0.486,0.324,0.99,0.485,1.447,0.485c0.495,0,0.781-0.209,0.781-0.542v-0.02
				c0-0.39-0.533-0.523-1.124-0.704c-0.743-0.21-1.571-0.515-1.571-1.477V40.28c0-0.952,0.79-1.533,1.79-1.533
				c0.533,0,1.095,0.152,1.58,0.409c0.162,0.086,0.276,0.238,0.276,0.438c0,0.267-0.209,0.467-0.476,0.467
				c-0.095,0-0.152-0.02-0.229-0.058c-0.41-0.209-0.829-0.343-1.181-0.343c-0.448,0-0.705,0.21-0.705,0.495v0.02
				c0,0.371,0.543,0.523,1.133,0.714c0.733,0.229,1.562,0.562,1.562,1.466v0.02c0,1.057-0.818,1.58-1.866,1.58
				C15.189,43.955,14.494,43.756,13.914,43.355z"/>
			<path fill="#484748" d="M18.601,41.375v-0.019c0-1.438,1.143-2.628,2.686-2.628c1.542,0,2.675,1.171,2.675,2.608v0.02
				c0,1.428-1.143,2.618-2.695,2.618C19.734,43.975,18.601,42.804,18.601,41.375z M22.81,41.375v-0.019
				c0-0.886-0.638-1.619-1.543-1.619c-0.923,0-1.514,0.724-1.514,1.6v0.02c0,0.876,0.638,1.608,1.533,1.608
				C22.219,42.965,22.81,42.242,22.81,41.375z M20.962,38.043c0-0.066,0.038-0.152,0.076-0.21l0.543-0.838
				c0.104-0.171,0.257-0.276,0.457-0.276c0.305,0,0.686,0.191,0.686,0.372c0,0.104-0.066,0.2-0.162,0.285l-0.638,0.609
				c-0.229,0.21-0.409,0.257-0.676,0.257C21.086,38.242,20.962,38.166,20.962,38.043z"/>
			<path fill="#484748" d="M25.203,37.434c0-0.314,0.247-0.571,0.571-0.571c0.323,0,0.581,0.257,0.581,0.571v5.903
				c0,0.323-0.258,0.571-0.581,0.571c-0.314,0-0.571-0.248-0.571-0.571V37.434z"/>
			<path fill="#484748" d="M30.164,43.975c-1.456,0-2.58-1.057-2.58-2.609v-0.019c0-1.438,1.02-2.618,2.457-2.618
				c1.6,0,2.39,1.313,2.39,2.476c0,0.323-0.247,0.552-0.543,0.552h-3.151c0.124,0.819,0.705,1.276,1.447,1.276
				c0.485,0,0.866-0.172,1.19-0.438c0.085-0.066,0.161-0.104,0.295-0.104c0.257,0,0.457,0.2,0.457,0.467
				c0,0.143-0.066,0.267-0.152,0.353C31.517,43.718,30.945,43.975,30.164,43.975z M31.307,40.994
				c-0.076-0.742-0.514-1.323-1.275-1.323c-0.705,0-1.199,0.543-1.305,1.323H31.307z"/>
			<path fill="#484748" d="M33.339,41.375v-0.019c0-1.438,1.143-2.628,2.686-2.628c1.542,0,2.675,1.171,2.675,2.608v0.02
				c0,1.428-1.143,2.618-2.694,2.618C34.473,43.975,33.339,42.804,33.339,41.375z M37.548,41.375v-0.019
				c0-0.886-0.638-1.619-1.543-1.619c-0.923,0-1.514,0.724-1.514,1.6v0.02c0,0.876,0.638,1.608,1.533,1.608
				C36.957,42.965,37.548,42.242,37.548,41.375z"/>
			<path fill="#484748" d="M42.57,40.547v-0.02c0-1.895,1.419-3.446,3.438-3.446c1.028,0,1.704,0.305,2.285,0.752
				c0.124,0.096,0.229,0.257,0.229,0.467c0,0.323-0.257,0.571-0.581,0.571c-0.161,0-0.276-0.057-0.353-0.114
				c-0.457-0.371-0.951-0.6-1.59-0.6c-1.266,0-2.199,1.047-2.199,2.352v0.019c0,1.305,0.924,2.361,2.199,2.361
				c0.705,0,1.181-0.229,1.666-0.638c0.086-0.076,0.21-0.133,0.353-0.133c0.296,0,0.553,0.247,0.553,0.542
				c0,0.182-0.086,0.324-0.19,0.42c-0.629,0.552-1.343,0.895-2.419,0.895C44.018,43.975,42.57,42.461,42.57,40.547z"/>
		</g>
		<path display="inline" fill="#484748" d="M24.641,31.279c-5.611,0-9.53-3.895-9.53-9.47c0-5.437,7.64-15.199,8.51-16.295
			l1.02-1.283l1.021,1.283c0.87,1.096,8.509,10.859,8.509,16.295C34.171,27.385,30.252,31.279,24.641,31.279 M24.641,8.468
			c-2.582,3.473-6.922,10.002-6.922,13.341c0,4.741,3.477,6.864,6.922,6.864c3.446,0,6.924-2.123,6.924-6.864
			C31.564,18.471,27.225,11.941,24.641,8.468"/>
	</g>
	<g id="biodiesel" display="none">
		<g display="inline">
			<path fill="#484748" d="M3.878,37.29c0-0.341,0.263-0.604,0.604-0.604h2.457c0.78,0,1.395,0.215,1.785,0.604
				c0.302,0.302,0.458,0.673,0.458,1.131v0.02c0,0.819-0.468,1.258-0.975,1.521c0.8,0.272,1.355,0.731,1.355,1.657v0.02
				c0,1.219-1.004,1.872-2.525,1.872H4.482c-0.341,0-0.604-0.264-0.604-0.604V37.29z M6.696,39.562c0.771,0,1.287-0.302,1.287-0.926
				v-0.02c0-0.536-0.429-0.868-1.199-0.868H5.058v1.813H6.696z M7.047,42.448c0.819,0,1.316-0.322,1.316-0.937v-0.02
				c0-0.575-0.458-0.916-1.404-0.916H5.058v1.872H7.047z"/>
			<path fill="#484748" d="M10.765,36.978c0-0.351,0.292-0.575,0.673-0.575c0.38,0,0.672,0.225,0.672,0.575v0.059
				c0,0.352-0.292,0.585-0.672,0.585c-0.38,0-0.673-0.233-0.673-0.585V36.978z M10.852,38.898c0-0.331,0.254-0.595,0.585-0.595
				c0.331,0,0.595,0.264,0.595,0.595v4.076c0,0.331-0.264,0.585-0.595,0.585c-0.322,0-0.585-0.254-0.585-0.585V38.898z"/>
			<path fill="#484748" d="M13.292,40.966v-0.02c0-1.473,1.17-2.691,2.75-2.691s2.74,1.2,2.74,2.672v0.02
				c0,1.463-1.17,2.682-2.759,2.682C14.452,43.628,13.292,42.429,13.292,40.966z M17.601,40.966v-0.02
				c0-0.906-0.653-1.657-1.58-1.657c-0.946,0-1.55,0.741-1.55,1.638v0.02c0,0.897,0.653,1.647,1.57,1.647
				C16.997,42.594,17.601,41.854,17.601,40.966z"/>
			<path fill="#484748" d="M25.043,42.975c0,0.331-0.263,0.585-0.585,0.585c-0.332,0-0.595-0.254-0.595-0.585v-0.322
				c-0.38,0.537-0.917,0.966-1.755,0.966c-1.209,0-2.389-0.966-2.389-2.672v-0.02c0-1.706,1.161-2.672,2.389-2.672
				c0.848,0,1.384,0.42,1.755,0.907V36.93c0-0.332,0.263-0.586,0.585-0.586c0.332,0,0.595,0.254,0.595,0.586V42.975z M20.909,40.927
				v0.02c0,0.995,0.682,1.647,1.482,1.647c0.79,0,1.492-0.662,1.492-1.647v-0.02c0-0.994-0.702-1.647-1.492-1.647
				C21.582,39.279,20.909,39.903,20.909,40.927z"/>
			<path fill="#484748" d="M26.509,36.978c0-0.351,0.292-0.575,0.673-0.575c0.38,0,0.672,0.225,0.672,0.575v0.059
				c0,0.352-0.292,0.585-0.672,0.585c-0.381,0-0.673-0.233-0.673-0.585V36.978z M26.596,38.898c0-0.331,0.254-0.595,0.586-0.595
				c0.331,0,0.595,0.264,0.595,0.595v4.076c0,0.331-0.264,0.585-0.595,0.585c-0.322,0-0.586-0.254-0.586-0.585V38.898z"/>
			<path fill="#484748" d="M31.678,43.628c-1.492,0-2.643-1.082-2.643-2.672v-0.02c0-1.473,1.043-2.682,2.516-2.682
				c1.638,0,2.447,1.346,2.447,2.535c0,0.332-0.254,0.565-0.556,0.565h-3.228c0.127,0.839,0.722,1.307,1.482,1.307
				c0.497,0,0.887-0.175,1.219-0.448c0.087-0.068,0.165-0.107,0.302-0.107c0.264,0,0.468,0.205,0.468,0.478
				c0,0.146-0.068,0.273-0.155,0.361C33.062,43.364,32.477,43.628,31.678,43.628z M32.848,40.576
				c-0.078-0.761-0.527-1.355-1.307-1.355c-0.722,0-1.229,0.556-1.336,1.355H32.848z"/>
			<path fill="#484748" d="M35.015,42.994c-0.127-0.068-0.225-0.215-0.225-0.41c0-0.263,0.205-0.478,0.479-0.478
				c0.098,0,0.185,0.029,0.253,0.068c0.498,0.332,1.015,0.497,1.482,0.497c0.507,0,0.8-0.214,0.8-0.556v-0.02
				c0-0.399-0.546-0.536-1.151-0.722c-0.76-0.214-1.608-0.526-1.608-1.511v-0.02c0-0.976,0.81-1.57,1.833-1.57
				c0.546,0,1.121,0.156,1.619,0.42c0.165,0.088,0.282,0.243,0.282,0.448c0,0.273-0.215,0.478-0.487,0.478
				c-0.098,0-0.156-0.02-0.234-0.059c-0.419-0.214-0.848-0.351-1.209-0.351c-0.458,0-0.722,0.215-0.722,0.507v0.02
				c0,0.38,0.556,0.536,1.16,0.731c0.751,0.234,1.6,0.575,1.6,1.501v0.02c0,1.083-0.839,1.619-1.911,1.619
				C36.321,43.608,35.609,43.403,35.015,42.994z"/>
			<path fill="#484748" d="M42.456,43.628c-1.492,0-2.643-1.082-2.643-2.672v-0.02c0-1.473,1.044-2.682,2.516-2.682
				c1.639,0,2.447,1.346,2.447,2.535c0,0.332-0.253,0.565-0.556,0.565h-3.228c0.127,0.839,0.722,1.307,1.482,1.307
				c0.497,0,0.888-0.175,1.219-0.448c0.088-0.068,0.166-0.107,0.303-0.107c0.263,0,0.468,0.205,0.468,0.478
				c0,0.146-0.068,0.273-0.156,0.361C43.841,43.364,43.256,43.628,42.456,43.628z M43.626,40.576
				c-0.078-0.761-0.526-1.355-1.307-1.355c-0.722,0-1.229,0.556-1.336,1.355H43.626z"/>
			<path fill="#484748" d="M46.057,36.93c0-0.322,0.253-0.586,0.585-0.586c0.331,0,0.595,0.264,0.595,0.586v6.045
				c0,0.331-0.264,0.585-0.595,0.585c-0.322,0-0.585-0.254-0.585-0.585V36.93z"/>
		</g>
		<path display="inline" fill="#484748" d="M41.235,2.996c-0.036-0.002-0.928-0.062-2.359-0.062c-4.793,0-16.377,0.693-20.424,7.108
			c-1.793,2.845-1.905,6.426-0.348,10.664c2.233-2.52,5.455-5.455,10.078-8.465c0.009-0.006,0.017-0.012,0.027-0.018l0,0
			c0.559-0.364,1.304-0.209,1.675,0.339C19.515,20.065,16.795,26.93,16.352,28.243c-0.129,0.387-0.132,0.796-0.008,1.184
			c0.259,0.806,0.892,1.267,1.735,1.267c0.086,0,0.173-0.005,0.262-0.016c1.17-0.124,2.099-1.063,2.209-2.232
			c0.091-0.95,0.398-2.541,1.36-4.533c0.998,0.167,2.246,0.306,3.649,0.306h0.001c5.96,0,16.026-2.619,16.474-20.171V3.851
			C42.034,3.4,41.685,3.026,41.235,2.996"/>
	</g>
	<g id="bioetanol" display="none">
		<g display="inline">
			<path fill="#484748" d="M2.874,37.168c0-0.34,0.262-0.602,0.602-0.602h2.446c0.776,0,1.388,0.213,1.776,0.602
				c0.301,0.301,0.456,0.67,0.456,1.126v0.019c0,0.815-0.466,1.252-0.971,1.515c0.796,0.271,1.349,0.728,1.349,1.649v0.02
				c0,1.213-1,1.863-2.514,1.863H3.475c-0.34,0-0.602-0.262-0.602-0.602V37.168z M5.678,39.429c0.767,0,1.281-0.301,1.281-0.922
				v-0.02c0-0.533-0.427-0.863-1.193-0.863H4.048v1.805H5.678z M6.027,42.302c0.815,0,1.31-0.32,1.31-0.932v-0.02
				c0-0.572-0.456-0.912-1.397-0.912H4.048v1.863H6.027z"/>
			<path fill="#484748" d="M9.727,36.857c0-0.35,0.291-0.572,0.669-0.572s0.67,0.223,0.67,0.572v0.059
				c0,0.349-0.292,0.582-0.67,0.582s-0.669-0.233-0.669-0.582V36.857z M9.814,38.77c0-0.33,0.252-0.593,0.582-0.593
				s0.592,0.263,0.592,0.593v4.056c0,0.33-0.262,0.583-0.592,0.583c-0.32,0-0.582-0.253-0.582-0.583V38.77z"/>
			<path fill="#484748" d="M12.241,40.826v-0.02c0-1.465,1.165-2.678,2.737-2.678s2.727,1.193,2.727,2.659v0.019
				c0,1.456-1.165,2.669-2.747,2.669C13.396,43.476,12.241,42.282,12.241,40.826z M16.531,40.826v-0.02
				c0-0.902-0.65-1.649-1.572-1.649c-0.941,0-1.543,0.737-1.543,1.631v0.019c0,0.894,0.65,1.641,1.563,1.641
				C15.929,42.447,16.531,41.71,16.531,40.826z"/>
			<path fill="#484748" d="M21.249,43.476c-1.485,0-2.63-1.077-2.63-2.659v-0.02c0-1.465,1.039-2.668,2.504-2.668
				c1.63,0,2.436,1.339,2.436,2.522c0,0.33-0.252,0.563-0.553,0.563h-3.212c0.126,0.834,0.718,1.3,1.475,1.3
				c0.495,0,0.883-0.174,1.213-0.446c0.087-0.067,0.165-0.106,0.301-0.106c0.262,0,0.466,0.204,0.466,0.476
				c0,0.146-0.068,0.271-0.155,0.359C22.627,43.214,22.045,43.476,21.249,43.476z M22.414,40.438
				c-0.078-0.757-0.524-1.349-1.3-1.349c-0.718,0-1.223,0.553-1.33,1.349H22.414z"/>
			<path fill="#484748" d="M25.006,41.942v-2.698h-0.194c-0.281,0-0.505-0.223-0.505-0.504s0.224-0.505,0.505-0.505h0.194v-0.873
				c0-0.32,0.262-0.583,0.592-0.583c0.32,0,0.582,0.263,0.582,0.583v0.873h0.922c0.282,0,0.515,0.224,0.515,0.505
				s-0.232,0.504-0.515,0.504h-0.922v2.514c0,0.456,0.233,0.641,0.631,0.641c0.136,0,0.253-0.029,0.291-0.029
				c0.263,0,0.495,0.214,0.495,0.485c0,0.214-0.146,0.389-0.311,0.456c-0.252,0.088-0.495,0.136-0.806,0.136
				C25.618,43.446,25.006,43.068,25.006,41.942z"/>
			<path fill="#484748" d="M28.414,41.885v-0.02c0-1.106,0.864-1.65,2.116-1.65c0.572,0,0.979,0.088,1.378,0.214v-0.126
				c0-0.729-0.446-1.116-1.271-1.116c-0.446,0-0.815,0.077-1.136,0.204c-0.067,0.019-0.126,0.028-0.184,0.028
				c-0.272,0-0.495-0.213-0.495-0.485c0-0.213,0.146-0.397,0.32-0.465c0.485-0.185,0.979-0.302,1.649-0.302
				c0.767,0,1.339,0.204,1.698,0.573c0.379,0.368,0.554,0.912,0.554,1.582v2.522c0,0.32-0.253,0.563-0.573,0.563
				c-0.34,0-0.572-0.233-0.572-0.495v-0.194c-0.35,0.417-0.883,0.747-1.669,0.747C29.269,43.466,28.414,42.913,28.414,41.885z
				 M31.928,41.516v-0.35c-0.301-0.116-0.699-0.204-1.165-0.204c-0.757,0-1.203,0.32-1.203,0.854v0.02c0,0.495,0.437,0.776,1,0.776
				C31.336,42.612,31.928,42.166,31.928,41.516z"/>
			<path fill="#484748" d="M34.452,38.77c0-0.33,0.253-0.593,0.583-0.593c0.329,0,0.592,0.263,0.592,0.593v0.252
				c0.33-0.476,0.805-0.893,1.601-0.893c1.155,0,1.825,0.776,1.825,1.96v2.736c0,0.33-0.253,0.583-0.583,0.583
				c-0.329,0-0.592-0.253-0.592-0.583v-2.377c0-0.796-0.397-1.252-1.097-1.252c-0.679,0-1.154,0.476-1.154,1.271v2.357
				c0,0.33-0.263,0.583-0.592,0.583c-0.32,0-0.583-0.253-0.583-0.583V38.77z"/>
			<path fill="#484748" d="M40.189,40.826v-0.02c0-1.465,1.165-2.678,2.736-2.678c1.572,0,2.728,1.193,2.728,2.659v0.019
				c0,1.456-1.165,2.669-2.746,2.669C41.345,43.476,40.189,42.282,40.189,40.826z M44.479,40.826v-0.02
				c0-0.902-0.649-1.649-1.571-1.649c-0.941,0-1.544,0.737-1.544,1.631v0.019c0,0.894,0.65,1.641,1.563,1.641
				C43.877,42.447,44.479,41.71,44.479,40.826z"/>
			<path fill="#484748" d="M46.917,36.809c0-0.32,0.252-0.582,0.582-0.582s0.592,0.262,0.592,0.582v6.017
				c0,0.33-0.262,0.583-0.592,0.583c-0.32,0-0.582-0.253-0.582-0.583V36.809z"/>
		</g>
		<path display="inline" fill="#484748" d="M41.26,3.039c-0.037-0.003-0.921-0.061-2.348-0.061c-4.77,0-16.297,0.69-20.325,7.075
			c-1.785,2.832-1.897,6.395-0.346,10.612c2.222-2.507,5.429-5.428,10.028-8.424c0.011-0.005,0.019-0.012,0.026-0.018l0,0
			c0.557-0.363,1.298-0.208,1.67,0.337c-10.321,7.468-13.028,14.299-13.47,15.606c-0.128,0.384-0.13,0.791-0.006,1.179
			c0.258,0.799,0.886,1.26,1.727,1.26c0.085,0,0.172-0.007,0.26-0.015c1.164-0.124,2.088-1.061,2.198-2.223
			c0.092-0.945,0.398-2.53,1.355-4.511c0.993,0.165,2.234,0.305,3.631,0.305h0.002c5.931,0,15.946-2.606,16.396-20.075V3.89
			C42.058,3.441,41.709,3.07,41.26,3.039"/>
	</g>
	<g id="gases_x5F_licuados" display="none">
		<g display="inline">
			<path fill="#484748" d="M14.984,17.112v-0.016c0-1.51,1.156-2.789,2.782-2.789c0.809,0,1.349,0.192,1.842,0.547
				c0.092,0.069,0.192,0.2,0.192,0.386c0,0.254-0.208,0.47-0.47,0.47c-0.124,0-0.216-0.054-0.293-0.108
				c-0.347-0.254-0.724-0.423-1.31-0.423c-0.994,0-1.749,0.87-1.749,1.903v0.015c0,1.11,0.732,1.927,1.834,1.927
				c0.508,0,0.971-0.162,1.302-0.408v-1.01h-1.063c-0.231,0-0.424-0.177-0.424-0.408s0.193-0.416,0.424-0.416h1.502
				c0.27,0,0.478,0.208,0.478,0.478V18.7c0,0.27-0.108,0.462-0.332,0.601c-0.462,0.309-1.109,0.586-1.918,0.586
				C16.094,19.887,14.984,18.685,14.984,17.112z"/>
			<path fill="#484748" d="M20.959,18.623v-0.016c0-0.879,0.686-1.311,1.68-1.311c0.455,0,0.778,0.069,1.095,0.17v-0.101
				c0-0.577-0.354-0.886-1.01-0.886c-0.354,0-0.647,0.062-0.901,0.162c-0.054,0.016-0.101,0.022-0.146,0.022
				c-0.216,0-0.393-0.169-0.393-0.385c0-0.17,0.116-0.316,0.254-0.37c0.385-0.146,0.778-0.238,1.31-0.238
				c0.609,0,1.063,0.161,1.349,0.454c0.301,0.293,0.439,0.725,0.439,1.256v2.004c0,0.254-0.2,0.446-0.455,0.446
				c-0.27,0-0.454-0.185-0.454-0.393v-0.154c-0.277,0.332-0.701,0.594-1.325,0.594C21.637,19.879,20.959,19.439,20.959,18.623z
				 M23.748,18.33v-0.277c-0.238-0.093-0.555-0.162-0.924-0.162c-0.602,0-0.956,0.254-0.956,0.678v0.016
				c0,0.394,0.347,0.616,0.794,0.616C23.278,19.2,23.748,18.846,23.748,18.33z"/>
			<path fill="#484748" d="M25.6,19.386c-0.101-0.054-0.178-0.17-0.178-0.324c0-0.208,0.162-0.377,0.378-0.377
				c0.077,0,0.146,0.022,0.2,0.054c0.394,0.262,0.802,0.393,1.172,0.393c0.4,0,0.632-0.169,0.632-0.438v-0.016
				c0-0.316-0.432-0.424-0.909-0.57c-0.602-0.17-1.271-0.416-1.271-1.194v-0.016c0-0.771,0.639-1.24,1.448-1.24
				c0.432,0,0.886,0.123,1.279,0.331c0.131,0.069,0.224,0.192,0.224,0.354c0,0.216-0.17,0.378-0.386,0.378
				c-0.077,0-0.123-0.016-0.185-0.047c-0.332-0.169-0.671-0.277-0.956-0.277c-0.362,0-0.57,0.17-0.57,0.401v0.015
				c0,0.301,0.439,0.424,0.917,0.578c0.594,0.185,1.264,0.455,1.264,1.187v0.016c0,0.855-0.662,1.279-1.51,1.279
				C26.632,19.871,26.069,19.709,25.6,19.386z"/>
			<path fill="#484748" d="M31.481,19.887c-1.179,0-2.088-0.855-2.088-2.111V17.76c0-1.164,0.824-2.119,1.988-2.119
				c1.294,0,1.934,1.063,1.934,2.004c0,0.262-0.2,0.446-0.439,0.446h-2.55c0.1,0.663,0.57,1.033,1.171,1.033
				c0.393,0,0.701-0.14,0.963-0.354c0.069-0.055,0.131-0.085,0.239-0.085c0.208,0,0.37,0.161,0.37,0.377
				c0,0.116-0.055,0.216-0.124,0.285C32.576,19.679,32.113,19.887,31.481,19.887z M32.406,17.475
				c-0.062-0.602-0.416-1.071-1.032-1.071c-0.57,0-0.971,0.439-1.056,1.071H32.406z"/>
			<path fill="#484748" d="M34.119,19.386c-0.101-0.054-0.178-0.17-0.178-0.324c0-0.208,0.162-0.377,0.378-0.377
				c0.077,0,0.146,0.022,0.2,0.054c0.394,0.262,0.802,0.393,1.172,0.393c0.4,0,0.632-0.169,0.632-0.438v-0.016
				c0-0.316-0.432-0.424-0.909-0.57c-0.602-0.17-1.271-0.416-1.271-1.194v-0.016c0-0.771,0.639-1.24,1.448-1.24
				c0.432,0,0.886,0.123,1.279,0.331c0.131,0.069,0.224,0.192,0.224,0.354c0,0.216-0.17,0.378-0.386,0.378
				c-0.077,0-0.123-0.016-0.185-0.047c-0.332-0.169-0.671-0.277-0.956-0.277c-0.362,0-0.57,0.17-0.57,0.401v0.015
				c0,0.301,0.439,0.424,0.917,0.578c0.594,0.185,1.264,0.455,1.264,1.187v0.016c0,0.855-0.662,1.279-1.51,1.279
				C35.151,19.871,34.589,19.709,34.119,19.386z"/>
		</g>
		<g display="inline">
			<path fill="#484748" d="M2.248,23.844c0-0.255,0.2-0.463,0.462-0.463c0.262,0,0.47,0.208,0.47,0.463v4.777
				c0,0.262-0.208,0.462-0.47,0.462c-0.254,0-0.462-0.2-0.462-0.462V23.844z"/>
			<path fill="#484748" d="M4.384,23.882c0-0.277,0.231-0.454,0.532-0.454c0.3,0,0.532,0.177,0.532,0.454v0.047
				c0,0.277-0.231,0.462-0.532,0.462c-0.301,0-0.532-0.185-0.532-0.462V23.882z M4.453,25.4c0-0.263,0.2-0.471,0.462-0.471
				c0.262,0,0.47,0.208,0.47,0.471v3.221c0,0.262-0.208,0.462-0.47,0.462c-0.254,0-0.462-0.2-0.462-0.462V25.4z"/>
			<path fill="#484748" d="M6.38,27.034v-0.016c0-1.156,0.894-2.127,2.119-2.127c0.639,0,1.079,0.208,1.425,0.509
				c0.062,0.054,0.146,0.169,0.146,0.323c0,0.239-0.193,0.424-0.432,0.424c-0.116,0-0.216-0.046-0.277-0.093
				c-0.239-0.2-0.501-0.347-0.871-0.347c-0.678,0-1.179,0.586-1.179,1.295v0.016c0,0.724,0.501,1.302,1.218,1.302
				c0.37,0,0.655-0.146,0.909-0.362c0.054-0.046,0.146-0.1,0.254-0.1c0.223,0,0.4,0.185,0.4,0.408c0,0.123-0.046,0.224-0.131,0.293
				c-0.362,0.347-0.801,0.578-1.479,0.578C7.274,29.138,6.38,28.189,6.38,27.034z"/>
			<path fill="#484748" d="M14.62,28.621c0,0.254-0.208,0.462-0.47,0.462c-0.254,0-0.47-0.2-0.47-0.462v-0.208
				c-0.262,0.386-0.639,0.717-1.271,0.717c-0.917,0-1.449-0.616-1.449-1.564V25.4c0-0.263,0.208-0.471,0.462-0.471
				c0.262,0,0.47,0.208,0.47,0.471v1.888c0,0.632,0.316,0.986,0.871,0.986c0.54,0,0.917-0.37,0.917-1.002V25.4
				c0-0.263,0.208-0.471,0.47-0.471c0.254,0,0.47,0.208,0.47,0.471V28.621z"/>
			<path fill="#484748" d="M15.516,27.874v-0.016c0-0.879,0.686-1.311,1.68-1.311c0.455,0,0.778,0.069,1.094,0.17v-0.101
				c0-0.577-0.354-0.886-1.009-0.886c-0.354,0-0.647,0.062-0.901,0.162c-0.054,0.016-0.101,0.022-0.146,0.022
				c-0.216,0-0.393-0.169-0.393-0.385c0-0.17,0.116-0.316,0.254-0.37c0.385-0.146,0.778-0.238,1.31-0.238
				c0.609,0,1.063,0.161,1.349,0.454c0.301,0.293,0.439,0.725,0.439,1.256v2.004c0,0.254-0.201,0.446-0.455,0.446
				c-0.27,0-0.455-0.185-0.455-0.393v-0.154c-0.277,0.332-0.701,0.594-1.325,0.594C16.194,29.13,15.516,28.69,15.516,27.874z
				 M18.306,27.581v-0.277c-0.239-0.093-0.555-0.162-0.925-0.162c-0.601,0-0.956,0.254-0.956,0.678v0.016
				c0,0.394,0.347,0.616,0.794,0.616C17.835,28.451,18.306,28.097,18.306,27.581z"/>
			<path fill="#484748" d="M24.311,28.621c0,0.262-0.208,0.462-0.463,0.462c-0.262,0-0.47-0.2-0.47-0.462v-0.254
				c-0.301,0.424-0.725,0.763-1.387,0.763c-0.956,0-1.888-0.763-1.888-2.111v-0.016c0-1.349,0.917-2.111,1.888-2.111
				c0.67,0,1.094,0.331,1.387,0.717v-1.765c0-0.262,0.208-0.463,0.463-0.463c0.262,0,0.47,0.201,0.47,0.463V28.621z M21.043,27.003
				v0.016c0,0.786,0.539,1.302,1.171,1.302c0.624,0,1.179-0.523,1.179-1.302v-0.016c0-0.786-0.555-1.303-1.179-1.303
				C21.575,25.7,21.043,26.193,21.043,27.003z"/>
			<path fill="#484748" d="M25.261,27.034v-0.016c0-1.164,0.925-2.127,2.173-2.127s2.165,0.948,2.165,2.111v0.016
				c0,1.155-0.925,2.119-2.181,2.119C26.178,29.138,25.261,28.189,25.261,27.034z M28.667,27.034v-0.016
				c0-0.717-0.517-1.311-1.249-1.311c-0.747,0-1.225,0.586-1.225,1.295v0.016c0,0.709,0.516,1.302,1.24,1.302
				C28.188,28.32,28.667,27.735,28.667,27.034z"/>
			<path fill="#484748" d="M30.396,28.637c-0.101-0.054-0.178-0.17-0.178-0.324c0-0.208,0.162-0.377,0.378-0.377
				c0.077,0,0.146,0.022,0.2,0.054c0.394,0.262,0.802,0.393,1.172,0.393c0.4,0,0.632-0.169,0.632-0.438v-0.016
				c0-0.316-0.432-0.424-0.91-0.57c-0.601-0.17-1.271-0.416-1.271-1.194v-0.016c0-0.771,0.639-1.24,1.448-1.24
				c0.432,0,0.886,0.123,1.279,0.331c0.131,0.069,0.224,0.192,0.224,0.354c0,0.216-0.17,0.378-0.386,0.378
				c-0.077,0-0.123-0.016-0.185-0.047c-0.332-0.169-0.671-0.277-0.956-0.277c-0.362,0-0.57,0.17-0.57,0.401v0.015
				c0,0.301,0.439,0.424,0.917,0.578c0.594,0.186,1.264,0.455,1.264,1.187v0.016c0,0.855-0.662,1.279-1.51,1.279
				C31.428,29.122,30.865,28.96,30.396,28.637z"/>
			<path fill="#484748" d="M40.724,28.621c0,0.262-0.208,0.462-0.463,0.462c-0.262,0-0.47-0.2-0.47-0.462v-0.254
				c-0.301,0.424-0.725,0.763-1.387,0.763c-0.956,0-1.888-0.763-1.888-2.111v-0.016c0-1.349,0.917-2.111,1.888-2.111
				c0.67,0,1.094,0.331,1.387,0.717v-1.765c0-0.262,0.208-0.463,0.463-0.463c0.262,0,0.47,0.201,0.47,0.463V28.621z M37.456,27.003
				v0.016c0,0.786,0.54,1.302,1.172,1.302c0.624,0,1.179-0.523,1.179-1.302v-0.016c0-0.786-0.555-1.303-1.179-1.303
				C37.988,25.7,37.456,26.193,37.456,27.003z"/>
			<path fill="#484748" d="M43.763,29.138c-1.179,0-2.088-0.855-2.088-2.111v-0.016c0-1.164,0.824-2.119,1.988-2.119
				c1.294,0,1.934,1.063,1.934,2.004c0,0.262-0.2,0.446-0.439,0.446h-2.55c0.1,0.663,0.57,1.033,1.171,1.033
				c0.393,0,0.701-0.14,0.963-0.354c0.069-0.055,0.131-0.085,0.239-0.085c0.208,0,0.37,0.161,0.37,0.377
				c0,0.116-0.055,0.216-0.124,0.285C44.857,28.93,44.395,29.138,43.763,29.138z M44.688,26.726
				c-0.062-0.602-0.416-1.071-1.032-1.071c-0.57,0-0.971,0.439-1.056,1.071H44.688z"/>
			<path fill="#484748" d="M46.608,23.844c0-0.255,0.2-0.463,0.462-0.463c0.263,0,0.471,0.208,0.471,0.463v4.777
				c0,0.262-0.208,0.462-0.471,0.462c-0.254,0-0.462-0.2-0.462-0.462V23.844z"/>
		</g>
		<g display="inline">
			<path fill="#484748" d="M10.112,34.652c0-0.263,0.201-0.471,0.462-0.471c0.262,0,0.47,0.208,0.47,0.471v0.254
				c0.3-0.424,0.724-0.763,1.387-0.763c0.955,0,1.888,0.755,1.888,2.111v0.016c0,1.349-0.925,2.111-1.888,2.111
				c-0.678,0-1.102-0.339-1.387-0.717v1.441c0,0.262-0.208,0.462-0.47,0.462c-0.254,0-0.462-0.2-0.462-0.462V34.652z M13.372,36.271
				v-0.016c0-0.786-0.532-1.303-1.164-1.303s-1.187,0.524-1.187,1.303v0.016c0,0.778,0.555,1.302,1.187,1.302
				C12.848,37.572,13.372,37.071,13.372,36.271z"/>
			<path fill="#484748" d="M17.149,38.39c-1.179,0-2.088-0.855-2.088-2.111v-0.016c0-1.164,0.824-2.119,1.988-2.119
				c1.295,0,1.934,1.063,1.934,2.004c0,0.262-0.2,0.446-0.439,0.446h-2.551c0.1,0.663,0.57,1.033,1.171,1.033
				c0.393,0,0.701-0.14,0.963-0.354c0.069-0.055,0.131-0.085,0.239-0.085c0.208,0,0.37,0.161,0.37,0.377
				c0,0.116-0.054,0.216-0.123,0.285C18.244,38.182,17.781,38.39,17.149,38.39z M18.074,35.978
				c-0.062-0.602-0.416-1.071-1.032-1.071c-0.57,0-0.971,0.439-1.056,1.071H18.074z"/>
			<path fill="#484748" d="M20.134,37.172v-2.143H19.98c-0.223,0-0.4-0.177-0.4-0.4s0.177-0.4,0.4-0.4h0.154v-0.693
				c0-0.255,0.208-0.463,0.47-0.463c0.254,0,0.462,0.208,0.462,0.463v0.693h0.732c0.224,0,0.408,0.177,0.408,0.4
				s-0.185,0.4-0.408,0.4h-0.732v1.996c0,0.362,0.185,0.509,0.501,0.509c0.108,0,0.201-0.023,0.231-0.023
				c0.208,0,0.393,0.17,0.393,0.386c0,0.169-0.115,0.308-0.246,0.362c-0.201,0.069-0.393,0.107-0.64,0.107
				C20.62,38.366,20.134,38.065,20.134,37.172z"/>
			<path fill="#484748" d="M23.11,34.652c0-0.263,0.2-0.471,0.462-0.471s0.47,0.208,0.47,0.471v0.416
				c0.216-0.509,0.617-0.894,1.025-0.894c0.293,0,0.462,0.192,0.462,0.462c0,0.246-0.161,0.408-0.369,0.447
				c-0.663,0.115-1.118,0.624-1.118,1.587v1.202c0,0.254-0.208,0.462-0.47,0.462c-0.254,0-0.462-0.2-0.462-0.462V34.652z"/>
			<path fill="#484748" d="M25.939,36.286v-0.016c0-1.164,0.925-2.127,2.173-2.127s2.165,0.948,2.165,2.111v0.016
				c0,1.155-0.925,2.119-2.181,2.119C26.856,38.39,25.939,37.441,25.939,36.286z M29.346,36.286v-0.016
				c0-0.717-0.517-1.311-1.249-1.311c-0.747,0-1.225,0.586-1.225,1.295v0.016c0,0.709,0.516,1.302,1.24,1.302
				C28.867,37.572,29.346,36.987,29.346,36.286z M27.851,33.589c0-0.054,0.03-0.123,0.062-0.17l0.439-0.678
				c0.084-0.139,0.208-0.224,0.369-0.224c0.247,0,0.555,0.154,0.555,0.301c0,0.085-0.054,0.161-0.131,0.23l-0.516,0.493
				c-0.186,0.17-0.332,0.209-0.548,0.209C27.95,33.751,27.851,33.688,27.851,33.589z"/>
			<path fill="#484748" d="M31.282,33.096c0-0.255,0.2-0.463,0.462-0.463c0.263,0,0.471,0.208,0.471,0.463v4.777
				c0,0.262-0.208,0.462-0.471,0.462c-0.254,0-0.462-0.2-0.462-0.462V33.096z"/>
			<path fill="#484748" d="M35.298,38.39c-1.179,0-2.088-0.855-2.088-2.111v-0.016c0-1.164,0.824-2.119,1.988-2.119
				c1.294,0,1.934,1.063,1.934,2.004c0,0.262-0.2,0.446-0.439,0.446h-2.55c0.1,0.663,0.57,1.033,1.171,1.033
				c0.393,0,0.701-0.14,0.963-0.354c0.069-0.055,0.131-0.085,0.239-0.085c0.208,0,0.37,0.161,0.37,0.377
				c0,0.116-0.055,0.216-0.124,0.285C36.393,38.182,35.93,38.39,35.298,38.39z M36.223,35.978c-0.062-0.602-0.416-1.071-1.032-1.071
				c-0.57,0-0.971,0.439-1.056,1.071H36.223z"/>
			<path fill="#484748" d="M37.866,36.286v-0.016c0-1.164,0.925-2.127,2.173-2.127s2.165,0.948,2.165,2.111v0.016
				c0,1.155-0.925,2.119-2.181,2.119C38.783,38.39,37.866,37.441,37.866,36.286z M41.272,36.286v-0.016
				c0-0.717-0.517-1.311-1.249-1.311c-0.747,0-1.225,0.586-1.225,1.295v0.016c0,0.709,0.516,1.302,1.24,1.302
				C40.794,37.572,41.272,36.987,41.272,36.286z"/>
		</g>
	</g>
	<g id="Layer_12" display="none">
		<g display="inline">
			<path fill="#484748" d="M2.638,30.517v-0.016c0-1.58,1.208-2.917,2.908-2.917c0.846,0,1.41,0.201,1.926,0.572
				c0.097,0.072,0.201,0.209,0.201,0.402c0,0.267-0.218,0.491-0.491,0.491c-0.129,0-0.226-0.056-0.307-0.112
				c-0.362-0.266-0.757-0.443-1.369-0.443c-1.04,0-1.829,0.911-1.829,1.99v0.017c0,1.16,0.766,2.014,1.917,2.014
				c0.532,0,1.015-0.169,1.362-0.427v-1.056H5.844c-0.241,0-0.443-0.186-0.443-0.427c0-0.242,0.202-0.436,0.443-0.436h1.571
				c0.282,0,0.5,0.218,0.5,0.5v1.507c0,0.281-0.113,0.482-0.346,0.628c-0.483,0.322-1.16,0.612-2.006,0.612
				C3.798,33.417,2.638,32.16,2.638,30.517z"/>
			<path fill="#484748" d="M8.879,32.096v-0.017c0-0.918,0.717-1.369,1.757-1.369c0.476,0,0.813,0.072,1.144,0.178v-0.105
				c0-0.604-0.37-0.926-1.055-0.926c-0.371,0-0.677,0.064-0.943,0.169c-0.056,0.016-0.104,0.024-0.153,0.024
				c-0.226,0-0.411-0.178-0.411-0.403c0-0.177,0.121-0.33,0.266-0.387c0.403-0.153,0.813-0.25,1.37-0.25
				c0.636,0,1.111,0.169,1.409,0.476c0.314,0.307,0.46,0.758,0.46,1.313v2.095c0,0.266-0.21,0.467-0.476,0.467
				c-0.282,0-0.476-0.193-0.476-0.41v-0.162c-0.29,0.347-0.733,0.621-1.386,0.621C9.588,33.409,8.879,32.95,8.879,32.096z
				 M11.796,31.79v-0.291c-0.25-0.096-0.58-0.169-0.967-0.169c-0.629,0-0.999,0.267-0.999,0.709v0.017
				c0,0.41,0.362,0.645,0.83,0.645C11.305,32.7,11.796,32.329,11.796,31.79z"/>
			<path fill="#484748" d="M13.728,32.894c-0.104-0.057-0.186-0.178-0.186-0.339c0-0.218,0.169-0.395,0.396-0.395
				c0.08,0,0.152,0.024,0.209,0.057c0.411,0.273,0.838,0.411,1.225,0.411c0.419,0,0.66-0.178,0.66-0.46v-0.016
				c0-0.331-0.451-0.443-0.95-0.597c-0.628-0.177-1.329-0.435-1.329-1.248v-0.017c0-0.806,0.668-1.297,1.515-1.297
				c0.451,0,0.927,0.129,1.337,0.347c0.137,0.072,0.234,0.201,0.234,0.37c0,0.226-0.178,0.395-0.403,0.395
				c-0.081,0-0.129-0.016-0.193-0.048c-0.347-0.178-0.701-0.29-0.999-0.29c-0.379,0-0.596,0.177-0.596,0.419v0.016
				c0,0.314,0.459,0.443,0.958,0.604c0.62,0.193,1.321,0.476,1.321,1.241v0.016c0,0.895-0.692,1.338-1.579,1.338
				C14.807,33.401,14.219,33.231,13.728,32.894z"/>
			<path fill="#484748" d="M20.34,29.51c0-0.274,0.209-0.491,0.483-0.491s0.491,0.217,0.491,0.491v0.209
				c0.274-0.395,0.669-0.741,1.33-0.741c0.958,0,1.514,0.645,1.514,1.628v2.271c0,0.274-0.209,0.483-0.482,0.483
				c-0.274,0-0.492-0.209-0.492-0.483v-1.974c0-0.66-0.33-1.039-0.91-1.039c-0.564,0-0.959,0.395-0.959,1.055v1.958
				c0,0.274-0.217,0.483-0.491,0.483c-0.266,0-0.483-0.209-0.483-0.483V29.51z"/>
			<path fill="#484748" d="M25.051,32.096v-0.017c0-0.918,0.717-1.369,1.757-1.369c0.476,0,0.813,0.072,1.144,0.178v-0.105
				c0-0.604-0.37-0.926-1.055-0.926c-0.371,0-0.678,0.064-0.943,0.169c-0.057,0.016-0.104,0.024-0.152,0.024
				c-0.227,0-0.411-0.178-0.411-0.403c0-0.177,0.12-0.33,0.266-0.387c0.403-0.153,0.813-0.25,1.37-0.25
				c0.636,0,1.111,0.169,1.409,0.476c0.314,0.307,0.46,0.758,0.46,1.313v2.095c0,0.266-0.21,0.467-0.476,0.467
				c-0.282,0-0.476-0.193-0.476-0.41v-0.162c-0.29,0.347-0.733,0.621-1.386,0.621C25.76,33.409,25.051,32.95,25.051,32.096z
				 M27.968,31.79v-0.291c-0.25-0.096-0.58-0.169-0.967-0.169c-0.629,0-0.999,0.267-0.999,0.709v0.017
				c0,0.41,0.362,0.645,0.83,0.645C27.477,32.7,27.968,32.329,27.968,31.79z"/>
			<path fill="#484748" d="M30.229,32.144v-2.239h-0.161c-0.233,0-0.419-0.186-0.419-0.419s0.186-0.419,0.419-0.419h0.161v-0.726
				c0-0.266,0.218-0.482,0.491-0.482c0.267,0,0.484,0.217,0.484,0.482v0.726h0.765c0.233,0,0.427,0.186,0.427,0.419
				s-0.193,0.419-0.427,0.419h-0.765v2.087c0,0.379,0.193,0.531,0.523,0.531c0.112,0,0.209-0.023,0.241-0.023
				c0.218,0,0.411,0.177,0.411,0.402c0,0.178-0.121,0.322-0.258,0.379c-0.209,0.072-0.411,0.112-0.669,0.112
				C30.737,33.393,30.229,33.079,30.229,32.144z"/>
			<path fill="#484748" d="M37.116,32.877c0,0.267-0.218,0.483-0.491,0.483c-0.266,0-0.491-0.209-0.491-0.483v-0.218
				c-0.274,0.403-0.669,0.75-1.329,0.75c-0.959,0-1.516-0.645-1.516-1.636V29.51c0-0.274,0.218-0.491,0.484-0.491
				c0.273,0,0.491,0.217,0.491,0.491v1.974c0,0.66,0.33,1.031,0.91,1.031c0.563,0,0.959-0.387,0.959-1.047V29.51
				c0-0.274,0.218-0.491,0.491-0.491c0.266,0,0.491,0.217,0.491,0.491V32.877z"/>
			<path fill="#484748" d="M38.331,29.51c0-0.274,0.21-0.491,0.483-0.491s0.491,0.217,0.491,0.491v0.435
				c0.226-0.531,0.645-0.935,1.071-0.935c0.307,0,0.484,0.202,0.484,0.483c0,0.258-0.17,0.428-0.387,0.468
				c-0.693,0.12-1.169,0.652-1.169,1.659v1.257c0,0.267-0.218,0.483-0.491,0.483c-0.266,0-0.483-0.209-0.483-0.483V29.51z"/>
			<path fill="#484748" d="M41.174,32.096v-0.017c0-0.918,0.717-1.369,1.757-1.369c0.476,0,0.813,0.072,1.144,0.178v-0.105
				c0-0.604-0.37-0.926-1.055-0.926c-0.371,0-0.678,0.064-0.943,0.169c-0.057,0.016-0.104,0.024-0.152,0.024
				c-0.227,0-0.411-0.178-0.411-0.403c0-0.177,0.12-0.33,0.266-0.387c0.403-0.153,0.813-0.25,1.37-0.25
				c0.636,0,1.111,0.169,1.409,0.476c0.314,0.307,0.46,0.758,0.46,1.313v2.095c0,0.266-0.21,0.467-0.476,0.467
				c-0.282,0-0.476-0.193-0.476-0.41v-0.162c-0.29,0.347-0.733,0.621-1.386,0.621C41.883,33.409,41.174,32.95,41.174,32.096z
				 M44.091,31.79v-0.291c-0.25-0.096-0.58-0.169-0.967-0.169c-0.629,0-0.999,0.267-0.999,0.709v0.017
				c0,0.41,0.362,0.645,0.83,0.645C43.6,32.7,44.091,32.329,44.091,31.79z"/>
			<path fill="#484748" d="M46.24,27.882c0-0.266,0.209-0.483,0.483-0.483c0.273,0,0.491,0.218,0.491,0.483v4.995
				c0,0.274-0.218,0.483-0.491,0.483c-0.267,0-0.483-0.209-0.483-0.483V27.882z"/>
		</g>
		<g display="inline">
			<path fill="#484748" d="M0.85,40.882v-0.017c0-1.208,0.935-2.224,2.215-2.224c0.668,0,1.128,0.218,1.491,0.532
				c0.064,0.056,0.153,0.177,0.153,0.338c0,0.25-0.202,0.443-0.451,0.443c-0.121,0-0.226-0.048-0.29-0.097
				c-0.25-0.209-0.524-0.362-0.911-0.362c-0.709,0-1.232,0.612-1.232,1.354v0.016c0,0.758,0.523,1.362,1.273,1.362
				c0.387,0,0.685-0.153,0.951-0.379c0.057-0.049,0.153-0.105,0.266-0.105c0.234,0,0.419,0.193,0.419,0.428
				c0,0.129-0.048,0.233-0.137,0.306c-0.379,0.362-0.838,0.604-1.547,0.604C1.784,43.081,0.85,42.09,0.85,40.882z"/>
			<path fill="#484748" d="M5.335,40.882v-0.017c0-1.216,0.967-2.224,2.272-2.224c1.305,0,2.264,0.991,2.264,2.208v0.016
				c0,1.209-0.967,2.216-2.28,2.216C6.294,43.081,5.335,42.09,5.335,40.882z M8.896,40.882v-0.017c0-0.749-0.54-1.369-1.306-1.369
				c-0.781,0-1.281,0.612-1.281,1.354v0.016c0,0.741,0.54,1.362,1.297,1.362C8.396,42.228,8.896,41.614,8.896,40.882z"/>
			<path fill="#484748" d="M10.86,39.174c0-0.274,0.21-0.491,0.483-0.491s0.491,0.217,0.491,0.491v0.201
				c0.274-0.379,0.645-0.733,1.298-0.733c0.611,0,1.047,0.299,1.272,0.75c0.339-0.451,0.79-0.75,1.435-0.75
				c0.926,0,1.49,0.588,1.49,1.628v2.271c0,0.274-0.21,0.483-0.483,0.483c-0.274,0-0.491-0.209-0.491-0.483v-1.974
				c0-0.677-0.314-1.039-0.862-1.039c-0.532,0-0.911,0.37-0.911,1.055v1.958c0,0.274-0.217,0.483-0.482,0.483
				c-0.274,0-0.492-0.209-0.492-0.483V40.56c0-0.661-0.322-1.031-0.861-1.031c-0.54,0-0.911,0.402-0.911,1.055v1.958
				c0,0.274-0.218,0.483-0.491,0.483c-0.266,0-0.483-0.209-0.483-0.483V39.174z"/>
			<path fill="#484748" d="M18.512,39.174c0-0.274,0.209-0.491,0.483-0.491s0.491,0.217,0.491,0.491v0.266
				c0.314-0.443,0.758-0.798,1.45-0.798c0.999,0,1.974,0.79,1.974,2.208v0.016c0,1.41-0.967,2.208-1.974,2.208
				c-0.709,0-1.151-0.354-1.45-0.75v1.507c0,0.274-0.217,0.483-0.491,0.483c-0.266,0-0.483-0.209-0.483-0.483V39.174z M21.92,40.865
				V40.85c0-0.822-0.557-1.362-1.217-1.362s-1.24,0.549-1.24,1.362v0.016c0,0.813,0.58,1.362,1.24,1.362
				C21.372,42.228,21.92,41.703,21.92,40.865z"/>
			<path fill="#484748" d="M23.915,39.174c0-0.274,0.21-0.491,0.483-0.491s0.491,0.217,0.491,0.491v0.435
				c0.226-0.531,0.645-0.935,1.071-0.935c0.307,0,0.484,0.202,0.484,0.483c0,0.258-0.17,0.428-0.387,0.468
				c-0.693,0.12-1.169,0.652-1.169,1.659v1.257c0,0.267-0.218,0.483-0.491,0.483c-0.266,0-0.483-0.209-0.483-0.483V39.174z"/>
			<path fill="#484748" d="M27.225,37.587c0-0.291,0.242-0.476,0.557-0.476s0.556,0.185,0.556,0.476v0.048
				c0,0.29-0.241,0.483-0.556,0.483s-0.557-0.193-0.557-0.483V37.587z M27.298,39.174c0-0.274,0.209-0.491,0.483-0.491
				c0.273,0,0.491,0.217,0.491,0.491v3.367c0,0.274-0.218,0.483-0.491,0.483c-0.266,0-0.483-0.209-0.483-0.483V39.174z"/>
			<path fill="#484748" d="M29.545,39.174c0-0.274,0.209-0.491,0.483-0.491s0.491,0.217,0.491,0.491v0.201
				c0.274-0.379,0.645-0.733,1.297-0.733c0.613,0,1.048,0.299,1.273,0.75c0.338-0.451,0.789-0.75,1.434-0.75
				c0.927,0,1.491,0.588,1.491,1.628v2.271c0,0.274-0.21,0.483-0.483,0.483c-0.274,0-0.492-0.209-0.492-0.483v-1.974
				c0-0.677-0.313-1.039-0.861-1.039c-0.532,0-0.91,0.37-0.91,1.055v1.958c0,0.274-0.218,0.483-0.484,0.483
				c-0.273,0-0.491-0.209-0.491-0.483V40.56c0-0.661-0.322-1.031-0.862-1.031c-0.539,0-0.91,0.402-0.91,1.055v1.958
				c0,0.274-0.217,0.483-0.491,0.483c-0.266,0-0.483-0.209-0.483-0.483V39.174z"/>
			<path fill="#484748" d="M37.18,37.587c0-0.291,0.242-0.476,0.557-0.476s0.556,0.185,0.556,0.476v0.048
				c0,0.29-0.241,0.483-0.556,0.483s-0.557-0.193-0.557-0.483V37.587z M37.253,39.174c0-0.274,0.209-0.491,0.483-0.491
				c0.273,0,0.491,0.217,0.491,0.491v3.367c0,0.274-0.218,0.483-0.491,0.483c-0.266,0-0.483-0.209-0.483-0.483V39.174z"/>
			<path fill="#484748" d="M43.681,42.541c0,0.274-0.218,0.483-0.483,0.483c-0.274,0-0.492-0.209-0.492-0.483v-0.266
				c-0.313,0.443-0.757,0.798-1.449,0.798c-1,0-1.975-0.798-1.975-2.208V40.85c0-1.41,0.959-2.208,1.975-2.208
				c0.7,0,1.144,0.347,1.449,0.75v-1.846c0-0.273,0.218-0.483,0.484-0.483c0.273,0,0.491,0.21,0.491,0.483V42.541z M40.265,40.85
				v0.016c0,0.822,0.563,1.362,1.225,1.362c0.652,0,1.232-0.549,1.232-1.362V40.85c0-0.822-0.58-1.362-1.232-1.362
				C40.82,39.487,40.265,40.003,40.265,40.85z"/>
			<path fill="#484748" d="M44.67,40.882v-0.017c0-1.216,0.967-2.224,2.271-2.224c1.306,0,2.264,0.991,2.264,2.208v0.016
				c0,1.209-0.967,2.216-2.279,2.216C45.629,43.081,44.67,42.09,44.67,40.882z M48.23,40.882v-0.017
				c0-0.749-0.539-1.369-1.305-1.369c-0.781,0-1.281,0.612-1.281,1.354v0.016c0,0.741,0.54,1.362,1.297,1.362
				C47.731,42.228,48.23,41.614,48.23,40.882z"/>
		</g>
		<path display="inline" fill-rule="evenodd" clip-rule="evenodd" fill="#484748" d="M19.985,16.703l0.028,0.029
			C20.014,16.732,19.977,16.712,19.985,16.703 M20.084,16.898l0.029,0.028C20.113,16.927,20.076,16.906,20.084,16.898
			 M20.822,21.958l-0.017-0.008c-0.013,0.004-0.021,0.008-0.033,0.008l0.004-0.024c-0.36-0.19-0.654-0.394-0.895-0.605
			c-0.299,0.548-0.709,1.049-1.023,1.791c-1.248,2.914,1.687,3.519,1.811,3.598c-3.771-0.1-5.483-3.337-4.373-5.367
			c1.405-2.562,2.475-4.556,1.899-6.329c0.422,0.096,0.741,0.29,1.02,0.568c0.559,0.538,0.414,0.526,0.667,0.819h-0.004
			c0-1.176-0.378-2.444,0.397-4.16c0.377-0.841,1.281-2.301,1.981-2.772c-0.092,0.381-0.282,0.75-0.398,1.189
			c-0.36,1.359-0.489,2.731-0.037,4.004c0.281,0.808,0.63,1.363,1.049,2.018c1.127,1.915,2.686,4.534,1.931,6.822
			c-0.455,1.375-1.86,2.901-3.137,3.009c0.053-0.074,0.107-0.142,0.157-0.195c0.058-0.063,0.111-0.111,0.166-0.157
			c1.773-1.819,0.771-3.217-1.165-4.202V21.958z"/>
	</g>
</g>
</svg>
